<svg version="1.1" xmlns="http://www.w3.org/2000/svg" viewBox="0 0 687.7713690288382 623.4420480113329" width="687.7713690288382" height="623.4420480113329" class="excalidraw-svg">
  <!-- svg-source:excalidraw -->
  
  <defs>
    <style class="style-fonts">
      
    </style>
    
  </defs>
  <rect x="0" y="0" width="687.7713690288382" height="623.4420480113329" fill="#ffffff"></rect><g stroke-opacity="0.3" fill-opacity="0.3" stroke-linecap="round" transform="translate(10 10) rotate(0 333.8856845144191 301.72102400566644)"><path d="M7.86 8.16 C7.86 8.16, 7.86 8.16, 7.86 8.16 M7.86 8.16 C7.86 8.16, 7.86 8.16, 7.86 8.16 M0.26 41.3 C7.65 32.79, 15.04 24.29, 36.34 -0.21 M0.26 41.3 C12.27 27.48, 24.28 13.67, 36.34 -0.21 M0.52 65.38 C19.7 43.32, 38.87 21.26, 57.6 -0.28 M0.52 65.38 C17.92 45.36, 35.32 25.35, 57.6 -0.28 M0.13 90.22 C17.43 70.31, 34.74 50.41, 78.2 0.41 M0.13 90.22 C28.88 57.15, 57.62 24.08, 78.2 0.41 M0.4 114.3 C22.73 88.61, 45.06 62.91, 99.46 0.34 M0.4 114.3 C32.52 77.35, 64.63 40.4, 99.46 0.34 M0.01 139.13 C26.21 108.99, 52.42 78.84, 120.72 0.27 M0.01 139.13 C26.73 108.4, 53.44 77.66, 120.72 0.27 M0.27 163.22 C30.89 128, 61.51 92.78, 141.98 0.2 M0.27 163.22 C30.21 128.78, 60.14 94.35, 141.98 0.2 M0.54 187.3 C38.83 143.25, 77.12 99.2, 163.24 0.13 M0.54 187.3 C33.93 148.89, 67.32 110.48, 163.24 0.13 M0.15 212.13 C60.12 143.14, 120.1 74.15, 184.5 0.06 M0.15 212.13 C61.06 142.07, 121.96 72.01, 184.5 0.06 M0.42 236.22 C45.05 184.87, 89.68 133.53, 205.76 -0.01 M0.42 236.22 C79.66 145.06, 158.9 53.9, 205.76 -0.01 M0.03 261.05 C83.48 165.05, 166.94 69.04, 227.02 -0.08 M0.03 261.05 C67.96 182.9, 135.89 104.76, 227.02 -0.08 M0.29 285.13 C50.13 227.8, 99.97 170.47, 248.28 -0.15 M0.29 285.13 C95.17 176, 190.04 66.86, 248.28 -0.15 M-0.1 309.97 C95.45 200.06, 190.99 90.15, 269.54 -0.22 M-0.1 309.97 C104.71 189.41, 209.51 68.85, 269.54 -0.22 M0.17 334.05 C93.43 226.77, 186.69 119.48, 290.8 -0.28 M0.17 334.05 C106.99 211.17, 213.81 88.28, 290.8 -0.28 M0.44 358.13 C91.71 253.13, 182.99 148.13, 311.41 0.4 M0.44 358.13 C100.71 242.78, 200.99 127.42, 311.41 0.4 M0.05 382.97 C69.47 303.11, 138.89 223.24, 332.67 0.33 M0.05 382.97 C88.61 281.08, 177.18 179.2, 332.67 0.33 M0.31 407.05 C138.31 248.31, 276.3 89.56, 353.93 0.26 M0.31 407.05 C98.49 294.11, 196.67 181.17, 353.93 0.26 M-0.08 431.89 C147.37 262.27, 294.82 92.64, 375.19 0.19 M-0.08 431.89 C134.01 277.64, 268.1 123.39, 375.19 0.19 M0.19 455.97 C97.83 343.65, 195.46 231.33, 396.45 0.12 M0.19 455.97 C112.86 326.36, 225.53 196.74, 396.45 0.12 M0.46 480.05 C125.15 336.61, 249.84 193.16, 417.71 0.06 M0.46 480.05 C114.09 349.33, 227.73 218.6, 417.71 0.06 M0.07 504.89 C114.52 373.23, 228.96 241.57, 438.97 -0.01 M0.07 504.89 C99.17 390.88, 198.27 276.88, 438.97 -0.01 M0.33 528.97 C114.71 397.4, 229.08 265.82, 460.23 -0.08 M0.33 528.97 C182.54 319.36, 364.75 109.75, 460.23 -0.08 M-0.06 553.81 C110.22 426.95, 220.49 300.1, 481.49 -0.15 M-0.06 553.81 C114.74 421.74, 229.54 289.68, 481.49 -0.15 M0.87 577.13 C132.14 426.11, 263.42 275.09, 502.75 -0.22 M0.87 577.13 C134.77 423.09, 268.68 269.05, 502.75 -0.22 M7.04 594.42 C184.46 390.32, 361.88 186.22, 523.35 0.47 M7.04 594.42 C167.94 409.32, 328.85 224.21, 523.35 0.47 M21.08 602.65 C153.77 450.02, 286.45 297.38, 544.61 0.4 M21.08 602.65 C217.52 376.67, 413.97 150.69, 544.61 0.4 M41.68 603.34 C248.25 365.71, 454.82 128.08, 565.87 0.33 M41.68 603.34 C192.74 429.57, 343.79 255.8, 565.87 0.33 M62.94 603.27 C187.25 460.27, 311.56 317.27, 587.14 0.26 M62.94 603.27 C254.62 382.77, 446.29 162.28, 587.14 0.26 M83.55 603.96 C275.95 382.62, 468.35 161.29, 608.4 0.19 M83.55 603.96 C221.96 444.74, 360.37 285.52, 608.4 0.19 M104.81 603.89 C274.02 409.24, 443.22 214.59, 629.66 0.12 M104.81 603.89 C228.36 461.75, 351.92 319.62, 629.66 0.12 M126.07 603.82 C253.83 456.85, 381.59 309.87, 648.95 2.32 M126.07 603.82 C328.51 370.94, 530.94 138.06, 648.95 2.32 M147.33 603.75 C309.96 416.66, 472.59 229.58, 662.33 11.3 M147.33 603.75 C319.82 405.32, 492.31 206.9, 662.33 11.3 M168.59 603.68 C272.12 484.59, 375.65 365.49, 667.85 29.35 M168.59 603.68 C298.65 454.06, 428.71 304.44, 667.85 29.35 M189.85 603.61 C343.27 427.12, 496.69 250.63, 668.12 53.43 M189.85 603.61 C365.74 401.27, 541.63 198.93, 668.12 53.43 M211.11 603.54 C317.3 481.39, 423.48 359.23, 667.73 78.27 M211.11 603.54 C365.85 425.53, 520.59 247.52, 667.73 78.27 M232.37 603.47 C379.49 434.23, 526.62 264.98, 667.99 102.35 M232.37 603.47 C402.53 407.72, 572.7 211.97, 667.99 102.35 M253.63 603.41 C375.4 463.32, 497.18 323.24, 668.26 126.43 M253.63 603.41 C390.68 445.74, 527.74 288.08, 668.26 126.43 M274.89 603.34 C378.58 484.06, 482.27 364.78, 667.87 151.27 M274.89 603.34 C358.72 506.91, 442.54 410.47, 667.87 151.27 M296.15 603.27 C430.6 448.6, 565.05 293.94, 668.14 175.35 M296.15 603.27 C443.78 433.44, 591.41 263.61, 668.14 175.35 M316.75 603.95 C419.67 485.56, 522.59 367.16, 667.75 200.18 M316.75 603.95 C456.72 442.94, 596.68 281.94, 667.75 200.18 M338.01 603.88 C405.11 526.7, 472.2 449.52, 668.01 224.27 M338.01 603.88 C454.29 470.13, 570.56 336.37, 668.01 224.27 M359.27 603.82 C457.17 491.19, 555.07 378.57, 668.28 248.35 M359.27 603.82 C440.56 510.31, 521.84 416.8, 668.28 248.35 M380.53 603.75 C490.8 476.9, 601.06 350.06, 667.89 273.18 M380.53 603.75 C456.57 516.27, 532.61 428.8, 667.89 273.18 M401.79 603.68 C487.69 504.86, 573.59 406.05, 668.15 297.27 M401.79 603.68 C475.14 519.3, 548.49 434.93, 668.15 297.27 M423.05 603.61 C487.65 529.31, 552.24 455, 667.76 322.1 M423.05 603.61 C485.32 531.98, 547.58 460.36, 667.76 322.1 M444.31 603.54 C532.67 501.9, 621.03 400.26, 668.03 346.18 M444.31 603.54 C502.04 537.14, 559.76 470.74, 668.03 346.18 M465.58 603.47 C506.55 556.33, 547.53 509.19, 668.3 370.27 M465.58 603.47 C525.51 534.52, 585.45 465.57, 668.3 370.27 M486.84 603.4 C544.01 537.63, 601.19 471.85, 667.91 395.1 M486.84 603.4 C556.81 522.91, 626.78 442.41, 667.91 395.1 M508.1 603.33 C564.66 538.26, 621.22 473.2, 668.17 419.18 M508.1 603.33 C542.56 563.69, 577.02 524.04, 668.17 419.18 M529.36 603.26 C579.67 545.39, 629.98 487.51, 667.78 444.02 M529.36 603.26 C583.23 541.28, 637.11 479.3, 667.78 444.02 M549.96 603.95 C581.78 567.35, 613.6 530.74, 668.05 468.1 M549.96 603.95 C584.62 564.08, 619.28 524.21, 668.05 468.1 M571.22 603.88 C601.64 568.89, 632.06 533.89, 668.32 492.18 M571.22 603.88 C605.01 565.01, 638.8 526.14, 668.32 492.18 M592.48 603.81 C615.06 577.84, 637.63 551.87, 667.93 517.02 M592.48 603.81 C612.36 580.94, 632.24 558.08, 667.93 517.02 M613.74 603.74 C626.68 588.86, 639.61 573.98, 668.19 541.1 M613.74 603.74 C629.95 585.1, 646.16 566.45, 668.19 541.1 M635 603.67 C647.74 589.02, 660.48 574.36, 667.8 565.94 M635 603.67 C645.22 591.91, 655.45 580.15, 667.8 565.94" stroke="#ffec99" stroke-width="2" fill="none"></path><path d="M32 0 C265.9 0, 499.81 0, 635.77 0 M32 0 C236.33 0, 440.67 0, 635.77 0 M635.77 0 C657.1 0, 667.77 10.67, 667.77 32 M635.77 0 C657.1 0, 667.77 10.67, 667.77 32 M667.77 32 C667.77 237.86, 667.77 443.72, 667.77 571.44 M667.77 32 C667.77 224.63, 667.77 417.25, 667.77 571.44 M667.77 571.44 C667.77 592.78, 657.1 603.44, 635.77 603.44 M667.77 571.44 C667.77 592.78, 657.1 603.44, 635.77 603.44 M635.77 603.44 C495.89 603.44, 356.01 603.44, 32 603.44 M635.77 603.44 C510.36 603.44, 384.95 603.44, 32 603.44 M32 603.44 C10.67 603.44, 0 592.78, 0 571.44 M32 603.44 C10.67 603.44, 0 592.78, 0 571.44 M0 571.44 C0 432.36, 0 293.28, 0 32 M0 571.44 C0 457.94, 0 344.44, 0 32 M0 32 C0 10.67, 10.67 0, 32 0 M0 32 C0 10.67, 10.67 0, 32 0" stroke="#e03131" stroke-width="4" fill="none"></path></g><g stroke-linecap="round"><g transform="translate(341.6296060934835 579.8378138209189) rotate(0 -4.393829345703125 -254.40026092529297)"><path d="M-0.05 0.39 C-1.2 -84.58, -6.27 -424.19, -7.78 -508.91 M-1.53 -0.45 C-2.68 -85.3, -6.79 -422.53, -8.2 -507.43" stroke="#1e1e1e" stroke-width="2" fill="none"></path></g><g transform="translate(341.6296060934835 579.8378138209189) rotate(0 -4.393829345703125 -254.40026092529297)"><path d="M0.68 -484.06 C-0.87 -487.72, -3.73 -495.22, -8.2 -507.43 M0.68 -484.06 C-1.9 -492.85, -5.99 -500.82, -8.2 -507.43" stroke="#1e1e1e" stroke-width="2" fill="none"></path></g><g transform="translate(341.6296060934835 579.8378138209189) rotate(0 -4.393829345703125 -254.40026092529297)"><path d="M-16.42 -483.82 C-14.07 -487.53, -13.03 -495.08, -8.2 -507.43 M-16.42 -483.82 C-12.66 -492.69, -10.42 -500.75, -8.2 -507.43" stroke="#1e1e1e" stroke-width="2" fill="none"></path></g></g><mask></mask><g stroke-linecap="round"><g transform="translate(110.71423133762414 295.4302057886924) rotate(0 230.55238342285156 2.37799072265625)"><path d="M0.71 -0.2 C77.83 0.59, 384.78 3.13, 461.55 3.93 M-0.37 -1.35 C76.73 -0.36, 383.99 3.83, 460.84 5.03" stroke="#1e1e1e" stroke-width="2" fill="none"></path></g><g transform="translate(110.71423133762414 295.4302057886924) rotate(0 230.55238342285156 2.37799072265625)"><path d="M437.22 13.24 C441.72 12.18, 445.44 10.18, 460.84 5.03 M437.22 13.24 C444.06 9.73, 449.92 8.76, 460.84 5.03" stroke="#1e1e1e" stroke-width="2" fill="none"></path></g><g transform="translate(110.71423133762414 295.4302057886924) rotate(0 230.55238342285156 2.37799072265625)"><path d="M437.47 -3.86 C441.8 -1.46, 445.47 0, 460.84 5.03 M437.47 -3.86 C444.14 -2.46, 449.94 1.47, 460.84 5.03" stroke="#1e1e1e" stroke-width="2" fill="none"></path></g></g><mask></mask><g transform="translate(323.55618080051477 38.92423960216894) rotate(0 7.40582275390625 12.886489868164062)" stroke="none"><path fill="#2f9e44" d="M 0.66,-0.10 Q 0.66,-0.10 1.06,0.58 1.46,1.28 1.87,2.13 2.29,2.98 2.76,3.69 3.23,4.39 3.81,4.90 4.39,5.40 5.05,5.65 5.71,5.90 6.84,5.87 7.97,5.84 8.55,5.50 9.13,5.15 9.64,3.68 10.16,2.21 10.45,1.27 10.74,0.33 11.30,-0.57 11.85,-1.49 12.73,-1.32 13.61,-1.16 13.94,-0.59 14.28,-0.03 14.55,0.94 14.82,1.92 15.18,3.30 15.53,4.68 15.93,6.33 16.32,7.97 16.61,9.77 16.90,11.56 16.99,13.52 17.08,15.48 16.66,17.43 16.24,19.39 15.18,21.14 14.12,22.88 12.66,24.16 11.20,25.44 9.62,26.22 8.04,27.00 6.49,27.38 4.93,27.77 2.12,27.72 -0.69,27.67 -0.80,27.66 -0.90,27.65 -1.00,27.61 -1.10,27.57 -1.17,27.49 -1.25,27.42 -1.30,27.33 -1.35,27.24 -1.37,27.13 -1.39,27.03 -1.37,26.92 -1.36,26.82 -1.31,26.72 -1.26,26.63 -1.18,26.55 -1.11,26.48 -1.01,26.43 -0.92,26.39 -0.81,26.38 -0.70,26.36 -0.60,26.39 -0.50,26.41 -0.41,26.46 -0.31,26.51 -0.24,26.59 -0.17,26.68 -0.13,26.77 -0.09,26.87 -0.09,26.98 -0.08,27.08 -0.11,27.19 -0.13,27.29 -0.19,27.38 -0.25,27.47 -0.34,27.53 -0.42,27.60 -0.52,27.63 -0.62,27.67 -0.73,27.67 -0.83,27.67 -0.93,27.64 -1.03,27.60 -1.12,27.54 -1.21,27.48 -1.27,27.39 -1.33,27.30 -1.36,27.20 -1.39,27.10 -1.38,26.99 -1.38,26.89 -1.34,26.79 -1.30,26.69 -1.23,26.61 -1.16,26.52 -1.07,26.47 -0.98,26.41 -0.88,26.39 -0.78,26.36 -0.78,26.36 -0.78,26.36 1.71,25.66 4.20,24.95 5.47,24.60 6.73,24.25 7.98,23.66 9.23,23.08 10.39,22.14 11.55,21.20 12.42,19.92 13.28,18.65 13.66,17.11 14.04,15.57 13.98,13.79 13.92,12.01 13.68,10.33 13.44,8.64 13.07,7.01 12.71,5.38 12.39,4.01 12.06,2.65 11.86,1.42 11.66,0.19 12.53,0.68 13.40,1.17 13.06,2.24 12.72,3.30 11.74,5.32 10.76,7.34 9.60,7.97 8.45,8.61 7.22,8.73 6.00,8.86 5.29,8.66 4.57,8.45 3.55,7.95 2.53,7.45 1.74,6.65 0.94,5.86 0.39,4.93 -0.16,4.00 -0.57,2.84 -0.99,1.68 -0.83,0.89 -0.66,0.10 -0.67,0.02 -0.67,-0.05 -0.65,-0.13 -0.64,-0.21 -0.60,-0.29 -0.56,-0.36 -0.51,-0.42 -0.46,-0.48 -0.40,-0.53 -0.33,-0.58 -0.26,-0.61 -0.18,-0.65 -0.10,-0.66 -0.02,-0.67 0.05,-0.66 0.13,-0.66 0.21,-0.63 0.29,-0.60 0.36,-0.56 0.43,-0.52 0.48,-0.46 0.54,-0.40 0.58,-0.33 0.62,-0.26 0.64,-0.18 0.66,-0.10 0.66,-0.10 L 0.66,-0.10 Z"></path></g><g transform="translate(581.8291300192648 287.45825144298925) rotate(0 11.323760986328125 13.6112060546875)" stroke="none"><path fill="#e03131" d="M 0.55,-0.38 Q 0.55,-0.38 1.89,0.88 3.23,2.16 4.57,3.87 5.91,5.57 7.45,7.40 8.99,9.22 10.62,11.15 12.25,13.07 15.05,16.17 17.86,19.27 19.35,20.95 20.83,22.64 21.60,23.55 22.37,24.45 22.12,24.34 21.86,24.23 21.90,24.29 21.95,24.36 21.97,24.43 22.00,24.51 22.01,24.59 22.02,24.66 22.00,24.74 21.99,24.82 21.96,24.89 21.93,24.97 21.89,25.03 21.84,25.10 21.78,25.15 21.72,25.20 21.65,25.23 21.58,25.27 21.50,25.29 21.42,25.30 21.34,25.30 21.27,25.30 21.19,25.28 21.11,25.26 21.04,25.22 20.97,25.18 20.92,25.13 20.86,25.07 20.78,24.89 20.71,24.71 20.71,24.60 20.72,24.50 20.76,24.40 20.80,24.30 20.87,24.22 20.94,24.14 21.03,24.09 21.13,24.04 21.23,24.01 21.34,23.99 21.44,24.01 21.55,24.02 21.64,24.07 21.74,24.11 21.81,24.19 21.89,24.26 21.94,24.36 21.99,24.45 22.00,24.56 22.02,24.66 22.00,24.77 21.98,24.87 21.93,24.96 21.88,25.06 21.80,25.13 21.72,25.20 21.62,25.24 21.52,25.29 21.42,25.29 21.31,25.30 21.21,25.28 21.11,25.26 21.02,25.20 20.93,25.14 20.86,25.06 20.79,24.98 20.75,24.88 20.72,24.78 20.71,24.67 20.71,24.57 20.74,24.47 20.77,24.36 20.83,24.28 20.89,24.19 20.98,24.13 21.06,24.06 21.16,24.03 21.26,24.00 21.37,24.00 21.48,24.00 21.58,24.04 21.68,24.07 21.76,24.14 21.84,24.21 21.90,24.30 21.96,24.38 21.91,24.30 21.86,24.23 21.90,24.29 21.95,24.36 21.97,24.43 22.00,24.51 22.01,24.59 22.02,24.66 22.00,24.74 21.99,24.82 21.96,24.89 21.93,24.97 21.89,25.03 21.84,25.10 21.78,25.15 21.72,25.20 21.65,25.23 21.58,25.27 21.50,25.29 21.42,25.30 21.34,25.30 21.27,25.30 21.19,25.28 21.11,25.26 21.04,25.22 20.97,25.18 20.92,25.13 20.86,25.07 20.40,25.79 19.94,26.51 19.19,25.63 18.44,24.74 16.97,23.07 15.49,21.39 12.68,18.23 9.86,15.07 8.25,13.12 6.64,11.17 5.10,9.26 3.56,7.36 2.25,5.56 0.93,3.77 0.18,2.08 -0.55,0.38 -0.59,0.31 -0.63,0.24 -0.65,0.16 -0.67,0.08 -0.67,0.00 -0.67,-0.07 -0.65,-0.15 -0.63,-0.23 -0.59,-0.30 -0.56,-0.38 -0.50,-0.44 -0.45,-0.50 -0.38,-0.55 -0.31,-0.59 -0.24,-0.62 -0.16,-0.65 -0.08,-0.66 -0.00,-0.67 0.07,-0.66 0.15,-0.65 0.23,-0.63 0.31,-0.60 0.37,-0.55 0.44,-0.51 0.50,-0.45 0.55,-0.38 0.55,-0.38 L 0.55,-0.38 Z"></path></g><g transform="translate(600.9890421286398 290.8102717066611) rotate(0 -9.71575927734375 12.863739013671875)" stroke="none"><path fill="#e03131" d="M 0.63,0.57 Q 0.63,0.57 -1.25,3.04 -3.14,5.51 -5.23,7.74 -7.33,9.98 -9.14,12.05 -10.96,14.13 -12.38,15.93 -13.80,17.74 -14.80,19.29 -15.80,20.84 -17.20,23.24 -18.59,25.65 -18.64,25.74 -18.68,25.84 -18.75,25.92 -18.82,26.00 -18.91,26.05 -19.01,26.10 -19.11,26.12 -19.22,26.14 -19.32,26.13 -19.43,26.11 -19.52,26.06 -19.62,26.02 -19.69,25.94 -19.77,25.86 -19.81,25.77 -19.86,25.67 -19.87,25.57 -19.89,25.46 -19.87,25.36 -19.84,25.25 -19.79,25.16 -19.74,25.07 -19.66,25.00 -19.58,24.93 -19.48,24.89 -19.38,24.85 -19.28,24.84 -19.17,24.83 -19.07,24.86 -18.97,24.88 -18.88,24.94 -18.79,25.00 -18.72,25.08 -18.66,25.17 -18.62,25.27 -18.58,25.37 -18.58,25.47 -18.58,25.58 -18.61,25.68 -18.64,25.78 -18.71,25.87 -18.77,25.95 -18.86,26.01 -18.94,26.08 -19.04,26.11 -19.15,26.14 -19.25,26.13 -19.36,26.13 -19.46,26.09 -19.56,26.05 -19.64,25.99 -19.72,25.92 -19.78,25.83 -19.83,25.74 -19.86,25.64 -19.88,25.53 -19.88,25.43 -19.87,25.32 -19.87,25.32 -19.87,25.32 -19.03,22.32 -18.19,19.31 -17.13,17.63 -16.07,15.95 -14.59,14.09 -13.12,12.22 -11.25,10.12 -9.38,8.03 -7.28,5.84 -5.18,3.65 -2.91,1.53 -0.63,-0.57 -0.55,-0.64 -0.47,-0.71 -0.38,-0.76 -0.29,-0.80 -0.19,-0.83 -0.09,-0.85 0.01,-0.85 0.11,-0.85 0.21,-0.82 0.31,-0.79 0.40,-0.74 0.49,-0.70 0.57,-0.63 0.65,-0.56 0.70,-0.47 0.76,-0.38 0.80,-0.29 0.83,-0.19 0.84,-0.09 0.85,0.01 0.84,0.11 0.83,0.21 0.79,0.31 0.75,0.40 0.69,0.49 0.63,0.57 0.63,0.57 L 0.63,0.57 Z"></path></g><g stroke-linecap="round"><g transform="translate(333.43069251926477 298.55566355236425) rotate(0 -44.275970458984375 92.76448059082031)"><path d="M0 0 C-14.76 30.92, -73.79 154.61, -88.55 185.53 M0 0 C-14.76 30.92, -73.79 154.61, -88.55 185.53" stroke="#f08c00" stroke-width="2" fill="none"></path></g><g transform="translate(333.43069251926477 298.55566355236425) rotate(0 -44.275970458984375 92.76448059082031)"><path d="M-86.15 160.64 C-86.72 166.51, -87.28 172.37, -88.55 185.53 M-86.15 160.64 C-87.02 169.65, -87.89 178.66, -88.55 185.53" stroke="#f08c00" stroke-width="2" fill="none"></path></g><g transform="translate(333.43069251926477 298.55566355236425) rotate(0 -44.275970458984375 92.76448059082031)"><path d="M-70.72 168.01 C-74.92 172.14, -79.12 176.26, -88.55 185.53 M-70.72 168.01 C-77.17 174.35, -83.63 180.7, -88.55 185.53" stroke="#f08c00" stroke-width="2" fill="none"></path></g></g><mask></mask><g transform="translate(309.605314101296 350.9169001246299) rotate(0 39.95037841796875 -47.83204650878906)" stroke="none"><path fill="#1971c2" d="M 0.22,-0.61 Q 0.22,-0.61 0.86,-0.58 1.51,-0.55 2.37,-0.20 3.23,0.15 4.01,0.46 4.79,0.78 5.69,0.96 6.60,1.14 7.82,1.40 9.03,1.65 10.23,1.92 11.43,2.18 12.60,2.44 13.77,2.70 14.97,2.96 16.18,3.23 17.45,3.48 18.72,3.73 19.98,3.91 21.23,4.09 22.44,4.18 23.65,4.26 24.87,4.30 26.09,4.34 27.31,4.35 28.54,4.37 29.76,4.38 30.98,4.38 32.18,4.33 33.38,4.28 34.51,4.19 35.64,4.09 36.73,3.94 37.82,3.80 38.78,3.61 39.74,3.43 40.75,3.17 41.77,2.91 42.82,2.61 43.87,2.31 44.91,1.95 45.94,1.59 47.01,1.21 48.08,0.82 49.05,0.32 50.03,-0.17 50.92,-0.80 51.81,-1.44 52.75,-2.18 53.70,-2.92 54.69,-3.71 55.69,-4.50 56.73,-5.34 57.78,-6.18 58.72,-7.09 59.66,-8.00 60.59,-9.05 61.52,-10.11 62.46,-11.26 63.40,-12.41 64.33,-13.69 65.26,-14.97 66.16,-16.28 67.07,-17.58 67.96,-18.90 68.85,-20.21 69.70,-21.47 70.55,-22.73 71.30,-23.95 72.05,-25.17 72.77,-26.42 73.49,-27.66 74.11,-28.96 74.74,-30.26 75.25,-31.69 75.76,-33.13 76.24,-34.61 76.72,-36.08 77.10,-37.47 77.48,-38.86 77.80,-40.21 78.11,-41.56 78.27,-42.84 78.42,-44.12 78.46,-45.46 78.50,-46.80 78.39,-48.20 78.28,-49.60 78.11,-51.00 77.95,-52.41 77.75,-53.70 77.55,-54.99 77.33,-56.23 77.10,-57.47 76.83,-58.79 76.56,-60.10 76.20,-61.44 75.84,-62.78 75.46,-64.09 75.07,-65.40 74.68,-66.61 74.28,-67.82 73.89,-68.96 73.49,-70.09 73.08,-71.19 72.66,-72.29 72.22,-73.37 71.77,-74.45 71.29,-75.45 70.80,-76.44 70.25,-77.40 69.69,-78.36 69.08,-79.31 68.48,-80.26 67.92,-81.20 67.37,-82.13 66.93,-82.79 66.49,-83.44 66.04,-84.05 65.60,-84.67 65.13,-85.17 64.67,-85.68 64.07,-86.24 63.48,-86.80 62.79,-87.37 62.10,-87.95 61.40,-88.55 60.71,-89.16 60.00,-89.67 59.28,-90.18 58.52,-90.68 57.75,-91.19 57.04,-91.64 56.34,-92.09 55.59,-92.50 54.85,-92.91 54.01,-93.46 53.18,-94.02 52.39,-94.51 51.60,-95.00 50.78,-95.50 49.97,-95.99 49.23,-96.44 48.49,-96.88 47.84,-97.25 47.20,-97.61 46.56,-97.92 45.92,-98.24 45.25,-98.56 44.58,-98.87 43.92,-99.16 43.26,-99.44 42.65,-99.62 42.03,-99.80 41.42,-99.90 40.81,-100.00 40.22,-100.04 39.63,-100.08 38.99,-100.10 38.35,-100.12 37.69,-100.13 37.03,-100.14 36.36,-100.14 35.69,-100.15 35.04,-100.15 34.39,-100.15 33.46,-99.98 32.54,-99.82 31.56,-99.56 30.57,-99.30 30.04,-99.16 29.50,-99.02 28.98,-98.88 28.45,-98.73 27.60,-98.40 26.75,-98.07 25.97,-97.88 25.19,-97.68 24.67,-97.53 24.14,-97.39 23.88,-96.82 23.62,-96.25 23.55,-96.23 23.47,-96.22 23.39,-96.23 23.31,-96.23 23.24,-96.26 23.16,-96.29 23.09,-96.33 23.03,-96.37 22.97,-96.43 22.92,-96.49 22.88,-96.55 22.84,-96.62 22.82,-96.70 22.80,-96.78 22.79,-96.86 22.79,-96.93 22.81,-97.01 22.82,-97.09 22.86,-97.16 22.89,-97.23 22.94,-97.29 22.99,-97.35 23.06,-97.40 23.12,-97.45 23.19,-97.48 23.27,-97.51 23.55,-97.46 23.83,-97.41 23.90,-97.34 23.98,-97.26 24.03,-97.17 24.07,-97.07 24.09,-96.97 24.10,-96.86 24.08,-96.76 24.06,-96.65 24.01,-96.56 23.96,-96.47 23.88,-96.40 23.80,-96.32 23.70,-96.28 23.61,-96.24 23.50,-96.23 23.40,-96.22 23.29,-96.25 23.19,-96.27 23.10,-96.33 23.01,-96.39 22.94,-96.47 22.88,-96.55 22.84,-96.65 22.80,-96.75 22.80,-96.86 22.80,-96.96 22.83,-97.07 22.86,-97.17 22.92,-97.25 22.98,-97.34 23.07,-97.40 23.15,-97.46 23.25,-97.50 23.36,-97.53 23.46,-97.52 23.57,-97.52 23.67,-97.49 23.77,-97.45 23.85,-97.38 23.93,-97.32 23.99,-97.23 24.05,-97.14 24.07,-97.04 24.10,-96.93 24.09,-96.83 24.08,-96.72 24.04,-96.62 24.00,-96.53 23.93,-96.45 23.86,-96.37 23.77,-96.31 23.67,-96.26 23.57,-96.24 23.47,-96.22 23.36,-96.23 23.26,-96.25 23.44,-96.25 23.62,-96.25 23.55,-96.23 23.47,-96.22 23.39,-96.23 23.31,-96.23 23.24,-96.26 23.16,-96.29 23.09,-96.33 23.03,-96.37 22.97,-96.43 22.92,-96.49 22.88,-96.55 22.84,-96.62 22.82,-96.70 22.80,-96.78 22.79,-96.86 22.79,-96.93 22.81,-97.01 22.82,-97.09 22.86,-97.16 22.89,-97.23 22.94,-97.29 22.99,-97.35 23.06,-97.40 23.12,-97.45 23.19,-97.48 23.27,-97.51 23.41,-98.59 23.56,-99.68 24.11,-99.81 24.66,-99.94 25.73,-100.23 26.81,-100.52 27.33,-100.71 27.85,-100.91 28.40,-101.06 28.95,-101.21 29.48,-101.34 30.01,-101.47 31.01,-101.73 32.01,-102.00 32.56,-102.13 33.11,-102.26 33.75,-102.33 34.39,-102.40 35.04,-102.39 35.70,-102.39 36.38,-102.39 37.06,-102.39 37.74,-102.38 38.42,-102.37 39.11,-102.35 39.80,-102.33 40.49,-102.27 41.18,-102.22 41.93,-102.09 42.67,-101.97 43.42,-101.74 44.16,-101.52 44.85,-101.21 45.55,-100.91 46.23,-100.59 46.91,-100.27 47.61,-99.92 48.31,-99.58 48.98,-99.20 49.65,-98.82 50.40,-98.37 51.16,-97.92 51.97,-97.42 52.79,-96.92 53.61,-96.41 54.44,-95.90 55.19,-95.39 55.95,-94.88 56.75,-94.44 57.55,-93.99 58.27,-93.54 58.99,-93.08 59.80,-92.55 60.61,-92.02 61.40,-91.46 62.19,-90.89 62.88,-90.31 63.58,-89.72 64.33,-89.10 65.07,-88.47 65.72,-87.86 66.37,-87.25 66.92,-86.64 67.47,-86.04 67.94,-85.41 68.42,-84.77 68.92,-84.07 69.41,-83.36 69.96,-82.46 70.51,-81.56 71.15,-80.57 71.79,-79.58 72.39,-78.55 72.99,-77.51 73.52,-76.45 74.04,-75.39 74.50,-74.27 74.96,-73.16 75.39,-72.03 75.81,-70.91 76.22,-69.75 76.63,-68.59 77.04,-67.35 77.45,-66.10 77.84,-64.76 78.24,-63.42 78.61,-62.02 78.99,-60.61 79.27,-59.26 79.56,-57.92 79.79,-56.64 80.02,-55.36 80.23,-54.03 80.43,-52.70 80.59,-51.24 80.76,-49.79 80.87,-48.26 80.99,-46.72 80.94,-45.27 80.89,-43.82 80.72,-42.41 80.54,-40.99 80.22,-39.59 79.89,-38.20 79.49,-36.76 79.09,-35.31 78.59,-33.80 78.10,-32.29 77.54,-30.73 76.98,-29.18 76.30,-27.80 75.63,-26.41 74.90,-25.14 74.16,-23.87 73.38,-22.61 72.60,-21.35 71.75,-20.09 70.90,-18.82 70.00,-17.50 69.10,-16.18 68.18,-14.85 67.25,-13.51 66.28,-12.18 65.30,-10.86 64.33,-9.67 63.35,-8.49 62.36,-7.36 61.36,-6.23 60.34,-5.25 59.32,-4.27 58.27,-3.42 57.22,-2.57 56.21,-1.78 55.21,-0.99 54.22,-0.21 53.22,0.56 52.18,1.28 51.14,2.01 50.03,2.57 48.91,3.13 47.83,3.52 46.74,3.91 45.64,4.29 44.54,4.66 43.45,4.97 42.36,5.29 41.28,5.56 40.20,5.83 39.17,6.03 38.14,6.23 36.99,6.37 35.85,6.52 34.66,6.62 33.47,6.72 32.22,6.77 30.97,6.82 29.74,6.81 28.50,6.80 27.26,6.78 26.01,6.77 24.74,6.73 23.47,6.68 22.17,6.59 20.88,6.49 19.56,6.29 18.24,6.09 16.95,5.83 15.66,5.57 14.44,5.29 13.23,5.01 12.08,4.72 10.93,4.44 9.74,4.17 8.55,3.90 7.32,3.63 6.09,3.35 5.05,3.09 4.01,2.82 3.18,2.47 2.34,2.12 1.58,1.75 0.82,1.38 0.30,1.00 -0.22,0.61 -0.29,0.58 -0.36,0.54 -0.42,0.49 -0.48,0.44 -0.52,0.38 -0.57,0.31 -0.60,0.24 -0.63,0.17 -0.64,0.09 -0.65,0.01 -0.64,-0.06 -0.64,-0.14 -0.61,-0.21 -0.58,-0.29 -0.54,-0.35 -0.50,-0.42 -0.44,-0.47 -0.38,-0.53 -0.31,-0.57 -0.24,-0.60 -0.16,-0.62 -0.09,-0.65 -0.01,-0.65 0.06,-0.65 0.14,-0.63 0.22,-0.61 0.22,-0.61 L 0.22,-0.61 Z"></path></g><g transform="translate(403.81948646457727 239.8984980250205) rotate(0 -6.13763427734375 11.436813354492188)" stroke="none"><path fill="#1971c2" d="M -0.28,0.60 Q -0.28,0.60 -1.58,0.21 -2.89,-0.17 -3.62,-0.31 -4.35,-0.45 -4.90,-0.42 -5.45,-0.39 -6.57,0.20 -7.70,0.80 -8.39,1.34 -9.07,1.88 -9.57,2.32 -10.06,2.75 -10.57,3.38 -11.07,4.01 -11.47,4.53 -11.86,5.04 -12.27,5.78 -12.68,6.53 -13.00,7.22 -13.32,7.91 -13.55,8.56 -13.79,9.21 -13.95,9.91 -14.10,10.60 -14.23,11.36 -14.36,12.12 -14.40,12.78 -14.43,13.44 -14.37,14.03 -14.31,14.61 -14.21,15.15 -14.11,15.69 -13.57,16.66 -13.03,17.62 -12.45,18.31 -11.88,18.99 -11.18,19.74 -10.47,20.49 -9.74,21.03 -9.01,21.57 -8.13,21.98 -7.26,22.39 -6.42,22.64 -5.58,22.89 -4.83,22.90 -4.09,22.90 -3.41,22.67 -2.74,22.43 -2.07,21.96 -1.41,21.50 -0.71,20.84 -0.01,20.18 0.54,19.35 1.09,18.53 1.40,17.70 1.70,16.86 1.83,15.92 1.95,14.97 1.82,13.93 1.68,12.89 1.23,11.80 0.78,10.70 0.15,9.59 -0.47,8.48 -1.09,7.50 -1.71,6.53 -2.39,5.65 -3.08,4.77 -3.82,3.97 -4.56,3.17 -5.17,2.57 -5.78,1.97 -7.04,1.00 -8.29,0.03 -8.39,0.00 -8.49,-0.02 -8.58,-0.09 -8.66,-0.15 -8.73,-0.24 -8.79,-0.32 -8.82,-0.42 -8.85,-0.53 -8.85,-0.63 -8.84,-0.74 -8.81,-0.84 -8.77,-0.94 -8.70,-1.02 -8.63,-1.10 -8.54,-1.16 -8.45,-1.22 -8.35,-1.24 -8.25,-1.27 -8.14,-1.26 -8.04,-1.25 -7.94,-1.20 -7.84,-1.16 -7.76,-1.09 -7.68,-1.02 -7.63,-0.93 -7.58,-0.83 -7.56,-0.73 -7.54,-0.62 -7.56,-0.52 -7.57,-0.41 -7.62,-0.32 -7.67,-0.22 -7.74,-0.15 -7.82,-0.08 -7.91,-0.03 -8.01,0.01 -8.11,0.02 -8.22,0.04 -8.32,0.02 -8.43,-0.00 -8.52,-0.05 -8.61,-0.10 -8.68,-0.18 -8.75,-0.26 -8.79,-0.36 -8.84,-0.46 -8.84,-0.56 -8.85,-0.67 -8.83,-0.77 -8.80,-0.87 -8.74,-0.96 -8.68,-1.05 -8.60,-1.12 -8.52,-1.18 -8.42,-1.22 -8.32,-1.26 -8.21,-1.26 -8.11,-1.26 -8.11,-1.26 -8.11,-1.26 -5.96,-0.70 -3.82,-0.15 -3.09,0.48 -2.36,1.12 -1.53,2.00 -0.70,2.88 0.09,3.88 0.88,4.87 1.55,5.91 2.22,6.96 2.95,8.26 3.68,9.57 4.23,11.04 4.79,12.52 4.93,13.96 5.07,15.41 4.86,16.70 4.66,17.99 4.18,19.16 3.71,20.34 2.93,21.42 2.15,22.51 1.23,23.34 0.31,24.17 -0.74,24.82 -1.81,25.47 -2.98,25.77 -4.16,26.08 -5.33,26.01 -6.50,25.94 -7.58,25.60 -8.65,25.25 -9.79,24.68 -10.92,24.10 -11.86,23.38 -12.79,22.65 -13.55,21.82 -14.31,20.99 -14.97,20.18 -15.63,19.36 -16.15,18.52 -16.67,17.69 -16.92,16.94 -17.16,16.20 -17.26,15.51 -17.36,14.83 -17.40,14.01 -17.44,13.19 -17.35,12.39 -17.27,11.59 -17.10,10.75 -16.93,9.91 -16.70,9.04 -16.48,8.18 -16.17,7.42 -15.87,6.67 -15.47,5.89 -15.07,5.11 -14.52,4.24 -13.97,3.36 -13.53,2.82 -13.08,2.28 -12.41,1.54 -11.73,0.80 -11.16,0.33 -10.60,-0.13 -9.77,-0.73 -8.94,-1.33 -7.19,-2.00 -5.44,-2.67 -4.65,-2.64 -3.87,-2.60 -2.93,-2.36 -2.00,-2.11 -0.85,-1.35 0.28,-0.60 0.34,-0.55 0.41,-0.51 0.47,-0.45 0.52,-0.40 0.56,-0.33 0.60,-0.26 0.63,-0.18 0.65,-0.10 0.65,-0.02 0.66,0.04 0.64,0.12 0.63,0.20 0.59,0.27 0.56,0.35 0.51,0.41 0.46,0.47 0.39,0.52 0.33,0.57 0.26,0.60 0.18,0.63 0.10,0.64 0.03,0.66 -0.04,0.65 -0.12,0.65 -0.20,0.62 -0.28,0.60 -0.28,0.60 L -0.28,0.60 Z"></path></g><g transform="translate(391.0915201559835 244.51846262462988) rotate(0 7.541595458984375 7.5190582275390625)" stroke="none"><path fill="#1971c2" d="M 0.51,-0.43 Q 0.51,-0.43 1.58,0.38 2.65,1.20 3.62,2.35 4.60,3.49 5.75,4.86 6.90,6.24 8.16,7.53 9.42,8.82 10.48,9.76 11.54,10.69 13.32,12.77 15.10,14.85 15.08,14.95 15.05,15.06 14.99,15.15 14.94,15.24 14.85,15.30 14.77,15.37 14.67,15.40 14.57,15.44 14.47,15.44 14.36,15.45 14.26,15.42 14.16,15.38 14.07,15.32 13.98,15.26 13.92,15.17 13.86,15.09 13.83,14.99 13.80,14.88 13.80,14.78 13.80,14.67 13.84,14.57 13.88,14.47 13.94,14.39 14.01,14.31 14.10,14.25 14.19,14.19 14.29,14.17 14.40,14.14 14.50,14.15 14.61,14.16 14.71,14.20 14.80,14.24 14.88,14.31 14.96,14.39 15.01,14.48 15.07,14.57 15.09,14.67 15.10,14.78 15.09,14.88 15.08,14.99 15.03,15.08 14.98,15.18 14.91,15.26 14.83,15.33 14.74,15.38 14.64,15.42 14.54,15.44 14.43,15.45 14.33,15.43 14.22,15.41 14.13,15.36 14.04,15.31 13.97,15.23 13.89,15.15 13.85,15.05 13.81,14.95 13.80,14.85 13.79,14.74 13.79,14.74 13.79,14.74 11.74,13.76 9.68,12.78 8.55,11.76 7.42,10.74 6.11,9.34 4.79,7.94 3.69,6.54 2.58,5.13 1.68,3.96 0.78,2.80 0.13,1.62 -0.51,0.43 -0.55,0.37 -0.60,0.30 -0.62,0.22 -0.65,0.15 -0.66,0.06 -0.67,-0.01 -0.66,-0.09 -0.65,-0.17 -0.62,-0.24 -0.59,-0.32 -0.54,-0.38 -0.49,-0.45 -0.43,-0.50 -0.37,-0.55 -0.30,-0.59 -0.22,-0.63 -0.14,-0.65 -0.07,-0.66 0.01,-0.66 0.09,-0.66 0.17,-0.64 0.24,-0.62 0.32,-0.58 0.39,-0.54 0.45,-0.49 0.51,-0.43 0.51,-0.43 L 0.51,-0.43 Z"></path></g><g transform="translate(214.72900184543664 488.89250132091894) rotate(0 6.7715911865234375 8.605926513671875)" stroke="none"><path fill="#f08c00" d="M 0.60,0.26 Q 0.60,0.26 0.73,0.66 0.86,1.06 0.88,1.71 0.91,2.36 0.91,3.33 0.92,4.30 1.07,5.72 1.21,7.14 1.57,8.52 1.92,9.90 2.47,11.38 3.01,12.86 3.39,13.73 3.77,14.61 4.45,15.19 5.13,15.78 5.81,16.11 6.48,16.44 7.41,16.35 8.33,16.25 8.91,15.92 9.49,15.58 9.83,15.07 10.17,14.56 10.54,13.31 10.92,12.06 11.21,10.67 11.50,9.28 11.70,8.19 11.90,7.10 12.04,6.35 12.18,5.60 12.31,4.88 12.43,4.16 12.50,3.49 12.56,2.81 12.57,2.21 12.58,1.60 12.16,1.47 11.74,1.33 11.75,1.26 11.76,1.18 11.80,1.11 11.83,1.03 11.88,0.97 11.93,0.91 11.99,0.86 12.05,0.81 12.12,0.78 12.19,0.74 12.27,0.73 12.35,0.71 12.43,0.72 12.51,0.72 12.58,0.75 12.66,0.77 12.73,0.81 12.80,0.85 12.85,0.91 12.91,0.96 12.95,1.03 12.99,1.10 13.01,1.17 13.04,1.25 13.04,1.33 13.05,1.41 12.73,1.72 12.41,2.03 12.31,2.01 12.20,2.00 12.11,1.95 12.01,1.90 11.94,1.83 11.86,1.76 11.81,1.66 11.77,1.57 11.75,1.46 11.74,1.35 11.76,1.25 11.78,1.15 11.83,1.05 11.88,0.96 11.96,0.89 12.04,0.82 12.13,0.78 12.23,0.73 12.34,0.72 12.44,0.72 12.55,0.74 12.65,0.77 12.74,0.82 12.83,0.88 12.90,0.96 12.96,1.04 13.00,1.14 13.04,1.24 13.04,1.35 13.04,1.46 13.01,1.56 12.98,1.66 12.92,1.75 12.86,1.83 12.77,1.89 12.69,1.96 12.59,1.99 12.48,2.02 12.38,2.02 12.27,2.02 12.17,1.98 12.07,1.94 11.99,1.88 11.91,1.81 11.85,1.72 11.79,1.63 11.76,1.53 11.74,1.43 11.75,1.32 11.75,1.21 11.80,1.12 11.84,1.02 11.91,0.94 11.98,0.86 12.07,0.81 12.16,0.75 11.95,1.04 11.74,1.33 11.75,1.26 11.76,1.18 11.80,1.11 11.83,1.03 11.88,0.97 11.93,0.91 11.99,0.86 12.05,0.81 12.12,0.78 12.19,0.74 12.27,0.73 12.35,0.71 12.43,0.72 12.51,0.72 12.58,0.75 12.66,0.77 12.73,0.81 12.80,0.85 12.85,0.91 12.91,0.96 12.95,1.03 12.99,1.10 13.01,1.17 13.04,1.25 13.04,1.33 13.05,1.41 14.13,1.58 15.21,1.74 15.15,2.43 15.09,3.11 14.98,3.87 14.87,4.63 14.73,5.33 14.59,6.04 14.45,6.79 14.31,7.54 14.12,8.65 13.92,9.75 13.64,11.26 13.35,12.76 12.88,14.45 12.40,16.14 11.65,17.10 10.90,18.06 9.72,18.62 8.54,19.18 6.91,19.16 5.28,19.14 4.18,18.54 3.07,17.95 2.08,16.90 1.09,15.86 0.66,14.86 0.22,13.86 -0.34,12.22 -0.91,10.59 -1.28,8.98 -1.65,7.37 -1.74,5.80 -1.83,4.22 -1.77,3.19 -1.70,2.15 -1.54,1.14 -1.38,0.13 -0.99,-0.06 -0.60,-0.26 -0.56,-0.33 -0.52,-0.39 -0.46,-0.45 -0.41,-0.51 -0.34,-0.55 -0.27,-0.59 -0.20,-0.62 -0.12,-0.64 -0.04,-0.65 0.03,-0.65 0.10,-0.64 0.18,-0.63 0.26,-0.59 0.33,-0.56 0.39,-0.51 0.45,-0.47 0.50,-0.40 0.55,-0.34 0.59,-0.27 0.62,-0.20 0.64,-0.12 0.65,-0.04 0.65,0.03 0.64,0.11 0.62,0.18 0.60,0.26 0.60,0.26 L 0.60,0.26 Z"></path></g><g stroke-linecap="round"><g transform="translate(337.2126105648466 297.1093247116373) rotate(0 -46.55496315523385 -0.5692600037770603)"><path d="M0 0 C-15.52 -0.19, -77.59 -0.95, -93.11 -1.14 M0 0 C-15.52 -0.19, -77.59 -0.95, -93.11 -1.14" stroke="#e03131" stroke-width="4" fill="none"></path></g><g transform="translate(337.2126105648466 297.1093247116373) rotate(0 -46.55496315523385 -0.5692600037770603)"><path d="M-69.51 -9.4 C-75.14 -7.43, -80.76 -5.46, -93.11 -1.14 M-69.51 -9.4 C-75.69 -7.24, -81.86 -5.08, -93.11 -1.14" stroke="#e03131" stroke-width="4" fill="none"></path></g><g transform="translate(337.2126105648466 297.1093247116373) rotate(0 -46.55496315523385 -0.5692600037770603)"><path d="M-69.72 7.7 C-75.3 5.59, -80.87 3.49, -93.11 -1.14 M-69.72 7.7 C-75.84 5.39, -81.96 3.08, -93.11 -1.14" stroke="#e03131" stroke-width="4" fill="none"></path></g></g><mask></mask><g stroke-linecap="round"><g transform="translate(336.3270239746547 297.5521180067332) rotate(0 1.960564268295684 94.69094129232215)"><path d="M0 0 C0.65 31.56, 3.27 157.82, 3.92 189.38 M0 0 C0.65 31.56, 3.27 157.82, 3.92 189.38" stroke="#2f9e44" stroke-width="4" fill="none"></path></g><g transform="translate(336.3270239746547 297.5521180067332) rotate(0 1.960564268295684 94.69094129232215)"><path d="M-5.11 166.07 C-1.77 174.7, 1.57 183.32, 3.92 189.38 M-5.11 166.07 C-1.51 175.38, 2.1 184.68, 3.92 189.38" stroke="#2f9e44" stroke-width="4" fill="none"></path></g><g transform="translate(336.3270239746547 297.5521180067332) rotate(0 1.960564268295684 94.69094129232215)"><path d="M11.98 165.72 C9 174.47, 6.02 183.23, 3.92 189.38 M11.98 165.72 C8.77 175.16, 5.55 184.61, 3.92 189.38" stroke="#2f9e44" stroke-width="4" fill="none"></path></g></g><mask></mask><g transform="translate(374.97473874053446 456.1927671042348) rotate(0 7.527272930347863 14.4217648360966)" stroke="none"><path fill="#2f9e44" d="M 0.66,0.17 Q 0.66,0.17 0.65,1.34 0.64,2.50 0.57,3.70 0.51,4.90 0.59,6.42 0.68,7.94 0.94,9.61 1.19,11.27 1.57,12.87 1.94,14.47 3.24,17.23 4.54,19.98 5.45,21.85 6.37,23.72 7.05,24.83 7.74,25.95 8.17,26.38 8.61,26.82 9.62,26.73 10.63,26.64 11.24,26.09 11.86,25.53 12.34,24.63 12.82,23.73 13.24,22.19 13.66,20.64 13.89,18.76 14.12,16.87 14.20,15.04 14.28,13.21 14.30,11.75 14.32,10.28 14.61,8.04 14.90,5.80 14.88,5.69 14.87,5.59 14.89,5.48 14.92,5.38 14.97,5.29 15.02,5.20 15.10,5.13 15.18,5.06 15.28,5.02 15.38,4.98 15.49,4.97 15.59,4.97 15.70,4.99 15.80,5.02 15.89,5.08 15.97,5.14 16.04,5.22 16.10,5.31 16.14,5.41 16.17,5.51 16.17,5.61 16.18,5.72 16.14,5.82 16.11,5.92 16.05,6.01 15.98,6.09 15.89,6.15 15.81,6.21 15.71,6.24 15.60,6.27 15.50,6.27 15.39,6.26 15.29,6.22 15.19,6.18 15.11,6.12 15.03,6.05 14.97,5.96 14.92,5.87 14.90,5.76 14.87,5.66 14.88,5.55 14.89,5.45 14.94,5.35 14.98,5.25 15.05,5.18 15.13,5.10 15.22,5.05 15.31,5.00 15.42,4.98 15.52,4.96 15.63,4.98 15.73,4.99 15.83,5.04 15.92,5.09 15.99,5.17 16.07,5.25 16.11,5.34 16.16,5.44 16.16,5.44 16.16,5.44 16.83,7.88 17.49,10.32 17.47,11.84 17.45,13.36 17.36,15.31 17.27,17.26 16.99,19.40 16.72,21.53 16.13,23.44 15.55,25.35 14.68,26.68 13.82,28.01 12.55,28.86 11.28,29.70 9.99,29.84 8.69,29.97 7.59,29.54 6.50,29.10 5.78,28.35 5.06,27.59 4.31,26.34 3.56,25.08 2.63,23.17 1.71,21.25 0.40,18.19 -0.90,15.13 -1.28,13.40 -1.65,11.67 -1.88,9.86 -2.11,8.04 -2.14,6.35 -2.16,4.65 -1.98,3.25 -1.80,1.85 -1.23,0.84 -0.66,-0.17 -0.63,-0.25 -0.60,-0.33 -0.55,-0.39 -0.50,-0.46 -0.44,-0.51 -0.37,-0.57 -0.30,-0.61 -0.23,-0.64 -0.15,-0.66 -0.06,-0.68 0.01,-0.68 0.09,-0.68 0.17,-0.65 0.25,-0.63 0.32,-0.59 0.40,-0.55 0.46,-0.50 0.52,-0.44 0.56,-0.37 0.61,-0.30 0.64,-0.22 0.67,-0.15 0.67,-0.06 0.68,0.01 0.67,0.09 0.66,0.17 0.66,0.17 L 0.66,0.17 Z"></path></g><g transform="translate(416.2794689805287 460.05107780473645) rotate(0 -5.408172467850363 11.639049763918138)" stroke="none"><path fill="#2f9e44" d="M -0.43,0.57 Q -0.43,0.57 -1.03,0.38 -1.63,0.18 -2.20,0.64 -2.77,1.09 -3.53,1.76 -4.29,2.43 -5.08,3.49 -5.87,4.55 -6.58,5.83 -7.28,7.12 -7.84,8.50 -8.40,9.88 -8.63,11.20 -8.86,12.51 -8.15,14.80 -7.44,17.10 -6.64,18.72 -5.83,20.34 -5.18,21.22 -4.54,22.11 -3.07,22.41 -1.61,22.72 -1.51,22.70 -1.40,22.67 -1.30,22.68 -1.19,22.70 -1.10,22.74 -1.00,22.78 -0.92,22.86 -0.85,22.93 -0.80,23.02 -0.74,23.12 -0.73,23.22 -0.71,23.33 -0.73,23.43 -0.74,23.54 -0.79,23.63 -0.84,23.72 -0.92,23.80 -1.00,23.87 -1.09,23.92 -1.19,23.96 -1.29,23.97 -1.40,23.98 -1.50,23.96 -1.61,23.94 -1.70,23.89 -1.79,23.83 -1.86,23.75 -1.93,23.67 -1.97,23.57 -2.01,23.47 -2.01,23.37 -2.02,23.26 -1.99,23.16 -1.96,23.06 -1.90,22.97 -1.84,22.88 -1.76,22.81 -1.68,22.75 -1.58,22.72 -1.47,22.68 -1.37,22.68 -1.26,22.68 -1.16,22.71 -1.06,22.75 -0.98,22.81 -0.89,22.88 -0.83,22.96 -0.77,23.05 -0.74,23.15 -0.71,23.26 -0.72,23.36 -0.72,23.47 -0.76,23.57 -0.80,23.67 -0.87,23.75 -0.94,23.83 -1.03,23.88 -1.12,23.94 -1.12,23.94 -1.12,23.94 -4.07,24.00 -7.02,24.07 -7.87,22.91 -8.71,21.75 -9.62,19.83 -10.53,17.92 -11.20,14.98 -11.87,12.05 -11.50,10.38 -11.13,8.72 -10.44,7.21 -9.75,5.69 -8.88,4.27 -8.02,2.84 -7.01,1.62 -5.99,0.41 -5.07,-0.32 -4.15,-1.05 -3.20,-1.53 -2.25,-2.00 -1.36,-1.89 -0.47,-1.78 -0.01,-1.18 0.43,-0.57 0.50,-0.51 0.56,-0.45 0.61,-0.38 0.65,-0.30 0.68,-0.22 0.71,-0.14 0.72,-0.05 0.72,0.03 0.71,0.11 0.69,0.20 0.66,0.28 0.62,0.36 0.57,0.43 0.52,0.50 0.45,0.56 0.38,0.61 0.30,0.65 0.22,0.69 0.14,0.70 0.05,0.72 -0.03,0.72 -0.12,0.71 -0.20,0.69 -0.28,0.66 -0.36,0.62 -0.43,0.57 -0.43,0.57 L -0.43,0.57 Z"></path></g><g transform="translate(436.14149707862464 463.78294310518527) rotate(0 1.770917476844545 7.938614690142344)" stroke="none"><path d="M-1.45 0.07 C-1.45 0.07, -1.45 0.07, -1.45 0.07 M-1.45 0.07 C-1.45 0.07, -1.45 0.07, -1.45 0.07 M0.72 0.62 C0.93 0.38, 1.14 0.13, 1.37 -0.13 M0.72 0.62 C0.94 0.37, 1.16 0.11, 1.37 -0.13 M-4.33 9.48 C-2.6 7.49, -0.86 5.49, 3.54 0.43 M-4.33 9.48 C-2.64 7.54, -0.95 5.59, 3.54 0.43 M-4.14 12.3 C-2.19 10.07, -0.25 7.83, 5.05 1.74 M-4.14 12.3 C-0.75 8.41, 2.63 4.52, 5.05 1.74 M-3.28 14.37 C0.1 10.48, 3.48 6.59, 6.56 3.05 M-3.28 14.37 C-0.86 11.59, 1.56 8.8, 6.56 3.05 M-1.77 15.68 C1.33 12.11, 4.43 8.55, 8.07 4.36 M-1.77 15.68 C2.08 11.25, 5.93 6.82, 8.07 4.36 M0.39 16.24 C3.39 12.79, 6.38 9.35, 9.58 5.67 M0.39 16.24 C3.16 13.05, 5.93 9.86, 9.58 5.67" stroke="#ffec99" stroke-width="0.25" fill="none"></path><path fill="#2f9e44" d="M 0.69,0.43 Q 0.69,0.43 -0.48,2.93 -1.66,5.43 -2.07,7.24 -2.47,9.05 -2.32,10.35 -2.16,11.65 -1.16,12.45 -0.15,13.25 0.79,13.11 1.73,12.97 2.86,12.09 3.99,11.20 4.89,10.06 5.79,8.91 6.10,7.94 6.40,6.97 5.95,6.08 5.50,5.19 4.58,4.17 3.66,3.16 2.66,2.55 1.66,1.93 1.04,1.63 0.42,1.33 -0.36,2.21 -1.16,3.09 -1.22,3.18 -1.28,3.27 -1.37,3.33 -1.46,3.39 -1.56,3.42 -1.66,3.45 -1.77,3.45 -1.87,3.44 -1.97,3.40 -2.07,3.37 -2.15,3.30 -2.23,3.23 -2.29,3.14 -2.35,3.05 -2.37,2.95 -2.40,2.85 -2.39,2.74 -2.38,2.63 -2.34,2.54 -2.29,2.44 -2.22,2.36 -2.15,2.28 -2.06,2.23 -1.96,2.18 -1.86,2.16 -1.75,2.14 -1.65,2.16 -1.54,2.17 -1.45,2.22 -1.35,2.27 -1.28,2.34 -1.21,2.42 -1.16,2.51 -1.11,2.61 -1.10,2.72 -1.09,2.82 -1.11,2.93 -1.13,3.03 -1.18,3.12 -1.23,3.21 -1.31,3.28 -1.39,3.35 -1.49,3.40 -1.59,3.44 -1.70,3.44 -1.80,3.45 -1.90,3.43 -2.01,3.40 -2.10,3.34 -2.19,3.28 -2.25,3.20 -2.32,3.12 -2.35,3.02 -2.39,2.92 -2.39,2.81 -2.39,2.70 -2.36,2.60 -2.33,2.50 -2.33,2.50 -2.33,2.50 -1.14,0.84 0.03,-0.82 1.61,-0.77 3.20,-0.72 4.63,0.16 6.07,1.04 7.30,2.54 8.52,4.04 9.01,5.80 9.49,7.56 8.92,9.23 8.34,10.91 7.08,12.40 5.82,13.88 3.92,15.00 2.03,16.12 0.13,15.98 -1.76,15.84 -3.41,14.15 -5.07,12.47 -5.27,10.41 -5.48,8.35 -4.85,6.11 -4.22,3.87 -2.46,1.71 -0.69,-0.43 -0.63,-0.51 -0.56,-0.59 -0.49,-0.65 -0.41,-0.71 -0.31,-0.75 -0.22,-0.78 -0.13,-0.80 -0.03,-0.82 0.06,-0.81 0.16,-0.80 0.25,-0.77 0.35,-0.74 0.43,-0.68 0.52,-0.63 0.58,-0.56 0.65,-0.49 0.70,-0.40 0.75,-0.32 0.78,-0.22 0.81,-0.13 0.81,-0.03 0.81,0.06 0.79,0.16 0.77,0.26 0.73,0.35 0.69,0.43 0.69,0.43 L 0.69,0.43 Z"></path></g><g transform="translate(465.0485264630116 461.69593343683664) rotate(0 -4.111457204146575 10.658107062294448)" stroke="none"><path fill="#2f9e44" d="M 0.36,0.69 Q 0.36,0.69 -1.35,1.89 -3.07,3.09 -3.14,3.81 -3.22,4.54 -1.59,6.73 0.02,8.92 1.04,10.86 2.05,12.80 2.34,14.67 2.63,16.53 1.48,18.16 0.33,19.79 -1.43,20.58 -3.19,21.36 -4.79,21.43 -6.39,21.50 -8.00,21.40 -9.61,21.31 -9.71,21.28 -9.82,21.26 -9.91,21.21 -10.00,21.15 -10.07,21.07 -10.14,20.99 -10.18,20.89 -10.22,20.79 -10.22,20.69 -10.23,20.58 -10.20,20.48 -10.17,20.38 -10.11,20.29 -10.05,20.20 -9.97,20.14 -9.88,20.07 -9.78,20.04 -9.68,20.00 -9.58,20.00 -9.47,20.00 -9.37,20.04 -9.27,20.07 -9.18,20.14 -9.10,20.20 -9.04,20.29 -8.98,20.38 -8.95,20.48 -8.92,20.58 -8.93,20.69 -8.93,20.79 -8.97,20.89 -9.01,20.99 -9.08,21.07 -9.15,21.15 -9.24,21.21 -9.33,21.26 -9.44,21.28 -9.54,21.31 -9.64,21.30 -9.75,21.28 -9.85,21.24 -9.94,21.19 -10.02,21.12 -10.10,21.05 -10.15,20.96 -10.20,20.86 -10.21,20.76 -10.23,20.65 -10.21,20.55 -10.20,20.44 -10.15,20.35 -10.10,20.25 -10.02,20.18 -9.94,20.11 -9.85,20.06 -9.75,20.02 -9.65,20.01 -9.54,20.00 -9.54,20.00 -9.54,20.00 -8.12,20.06 -6.71,20.12 -5.53,19.52 -4.36,18.92 -3.19,18.29 -2.03,17.65 -1.17,16.89 -0.31,16.14 -0.59,15.20 -0.87,14.27 -1.80,12.46 -2.72,10.64 -4.38,7.58 -6.04,4.52 -5.44,2.82 -4.85,1.12 -2.61,0.21 -0.36,-0.69 -0.27,-0.72 -0.19,-0.75 -0.09,-0.77 -0.00,-0.78 0.08,-0.77 0.18,-0.76 0.27,-0.72 0.36,-0.69 0.43,-0.64 0.51,-0.58 0.57,-0.51 0.64,-0.44 0.68,-0.36 0.73,-0.28 0.75,-0.19 0.77,-0.09 0.77,-0.00 0.77,0.09 0.75,0.18 0.73,0.27 0.69,0.35 0.64,0.44 0.58,0.51 0.52,0.58 0.44,0.63 0.36,0.69 0.36,0.69 L 0.36,0.69 Z"></path></g><g transform="translate(503.75982617559805 460.3045652464333) rotate(0 1.170227246394461 12.302664373599157)" stroke="none"><path d="M-8.52 1.87 C-8.52 1.87, -8.52 1.87, -8.52 1.87 M-8.52 1.87 C-8.52 1.87, -8.52 1.87, -8.52 1.87 M-10.29 6.96 C-8.35 4.73, -6.42 2.5, -2.42 -2.1 M-10.29 6.96 C-7.81 4.1, -5.32 1.25, -2.42 -2.1 M-11.4 11.29 C-7.29 6.56, -3.19 1.83, -0.91 -0.79 M-11.4 11.29 C-7.98 7.35, -4.56 3.41, -0.91 -0.79 M-0.91 -0.79 C-0.91 -0.79, -0.91 -0.79, -0.91 -0.79 M-0.91 -0.79 C-0.91 -0.79, -0.91 -0.79, -0.91 -0.79 M-11.21 14.11 C-7.3 9.61, -3.39 5.12, 2.57 -1.74 M-11.21 14.11 C-8.13 10.57, -5.06 7.04, 2.57 -1.74 M-11.01 16.93 C-6.13 11.32, -1.26 5.72, 4.74 -1.18 M-11.01 16.93 C-7.85 13.3, -4.69 9.66, 4.74 -1.18 M-10.15 19 C-5.49 13.63, -0.82 8.25, 6.9 -0.62 M-10.15 19 C-5.26 13.37, -0.37 7.74, 6.9 -0.62 M-8.65 20.31 C-4.39 15.42, -0.14 10.53, 8.41 0.69 M-8.65 20.31 C-4.62 15.68, -0.59 11.04, 8.41 0.69 M-7.79 22.38 C-1.71 15.38, 4.37 8.39, 9.92 2 M-7.79 22.38 C-1.32 14.93, 5.16 7.48, 9.92 2 M-6.28 23.69 C-0.24 16.74, 5.8 9.79, 10.78 4.07 M-6.28 23.69 C0.5 15.88, 7.29 8.08, 10.78 4.07 M-4.77 25 C-0.9 20.55, 2.97 16.09, 12.28 5.38 M-4.77 25 C0.44 19.01, 5.64 13.02, 12.28 5.38 M-2.61 25.56 C2.28 19.93, 7.18 14.3, 13.14 7.45 M-2.61 25.56 C2.97 19.14, 8.55 12.72, 13.14 7.45 M-1.1 26.87 C2.12 23.17, 5.33 19.47, 13.99 9.51 M-1.1 26.87 C4.16 20.82, 9.42 14.77, 13.99 9.51 M1.72 26.67 C4.77 23.16, 7.82 19.66, 13.53 13.09 M1.72 26.67 C4.94 22.98, 8.15 19.28, 13.53 13.09 M3.89 27.23 C7.03 23.61, 10.18 20, 13.07 16.66 M3.89 27.23 C6.96 23.7, 10.03 20.16, 13.07 16.66" stroke="#ffec99" stroke-width="0.25" fill="none"></path><path fill="#2f9e44" d="M -0.43,0.50 Q -0.43,0.50 -1.29,0.10 -2.14,-0.28 -3.31,-0.00 -4.48,0.27 -5.32,1.00 -6.15,1.72 -6.87,2.89 -7.59,4.05 -8.20,5.62 -8.80,7.19 -9.14,8.37 -9.47,9.56 -9.60,10.95 -9.73,12.33 -9.37,14.21 -9.01,16.08 -7.76,18.11 -6.52,20.14 -5.19,21.39 -3.87,22.65 -2.61,23.36 -1.34,24.06 -0.18,24.43 0.97,24.80 2.09,24.88 3.21,24.95 4.26,24.63 5.30,24.31 6.43,23.46 7.56,22.62 8.64,21.12 9.72,19.63 10.44,17.99 11.15,16.35 11.42,14.79 11.69,13.24 11.52,11.53 11.34,9.83 10.66,8.05 9.98,6.27 9.06,4.74 8.15,3.21 7.36,2.29 6.56,1.37 5.69,0.78 4.82,0.18 4.01,-0.14 3.19,-0.48 2.52,-0.67 1.85,-0.85 0.49,-0.66 -0.85,-0.47 -0.96,-0.45 -1.06,-0.43 -1.17,-0.44 -1.27,-0.45 -1.37,-0.50 -1.47,-0.54 -1.54,-0.62 -1.62,-0.69 -1.67,-0.79 -1.71,-0.88 -1.73,-0.99 -1.74,-1.09 -1.73,-1.20 -1.71,-1.30 -1.66,-1.39 -1.61,-1.49 -1.53,-1.56 -1.45,-1.63 -1.35,-1.67 -1.25,-1.72 -1.15,-1.73 -1.04,-1.74 -0.94,-1.71 -0.84,-1.69 -0.75,-1.63 -0.66,-1.58 -0.59,-1.49 -0.52,-1.41 -0.48,-1.31 -0.44,-1.21 -0.44,-1.11 -0.44,-1.00 -0.47,-0.90 -0.50,-0.80 -0.56,-0.71 -0.62,-0.62 -0.70,-0.56 -0.79,-0.50 -0.89,-0.46 -0.99,-0.43 -1.10,-0.43 -1.20,-0.44 -1.30,-0.47 -1.40,-0.51 -1.49,-0.57 -1.57,-0.64 -1.63,-0.73 -1.69,-0.82 -1.72,-0.92 -1.74,-1.02 -1.73,-1.13 -1.73,-1.23 -1.69,-1.33 -1.65,-1.43 -1.58,-1.51 -1.51,-1.59 -1.41,-1.64 -1.32,-1.70 -1.32,-1.70 -1.32,-1.70 0.38,-2.48 2.08,-3.26 3.14,-3.23 4.19,-3.20 5.38,-2.79 6.57,-2.38 7.77,-1.55 8.96,-0.72 9.95,0.41 10.93,1.56 11.99,3.35 13.04,5.14 13.81,7.33 14.58,9.51 14.75,11.66 14.91,13.80 14.53,15.74 14.15,17.68 13.25,19.63 12.35,21.59 10.91,23.43 9.47,25.27 7.84,26.36 6.20,27.45 4.60,27.83 2.99,28.21 1.47,28.05 -0.04,27.90 -1.50,27.39 -2.97,26.88 -4.54,25.93 -6.12,24.98 -7.70,23.38 -9.29,21.78 -10.70,19.22 -12.11,16.66 -12.44,14.34 -12.77,12.01 -12.54,10.37 -12.32,8.72 -11.91,7.39 -11.50,6.06 -10.71,4.27 -9.91,2.49 -8.87,1.06 -7.83,-0.35 -6.56,-1.26 -5.30,-2.16 -4.05,-2.47 -2.79,-2.77 -1.74,-2.48 -0.69,-2.19 -0.12,-1.34 0.43,-0.50 0.49,-0.44 0.54,-0.38 0.58,-0.31 0.62,-0.24 0.64,-0.16 0.65,-0.08 0.66,-0.00 0.66,0.07 0.64,0.15 0.62,0.23 0.58,0.30 0.55,0.37 0.49,0.43 0.44,0.49 0.37,0.54 0.31,0.58 0.23,0.61 0.16,0.64 0.08,0.65 0.00,0.66 -0.07,0.65 -0.15,0.64 -0.22,0.61 -0.30,0.59 -0.37,0.54 -0.43,0.50 -0.43,0.50 L -0.43,0.50 Z"></path></g><g transform="translate(495.97970506240097 463.08725900998354) rotate(0 9.393184271943937 8.697521485370544)" stroke="none"><path fill="#2f9e44" d="M 0.62,-0.33 Q 0.62,-0.33 1.92,1.44 3.22,3.22 4.81,5.06 6.40,6.90 8.29,8.49 10.18,10.08 11.99,11.27 13.79,12.47 15.12,13.27 16.45,14.07 17.37,14.65 18.29,15.23 17.05,15.38 15.82,15.54 15.88,15.59 15.94,15.64 15.99,15.71 16.04,15.77 16.07,15.84 16.10,15.92 16.11,15.99 16.12,16.07 16.12,16.15 16.11,16.23 16.09,16.30 16.06,16.38 16.02,16.45 15.98,16.51 15.92,16.57 15.86,16.62 15.79,16.66 15.73,16.70 15.65,16.72 15.57,16.75 15.49,16.75 15.42,16.75 15.34,16.74 15.26,16.72 15.19,16.69 15.12,16.65 15.05,16.60 14.98,16.54 14.92,16.45 14.87,16.36 14.84,16.26 14.81,16.16 14.82,16.05 14.83,15.94 14.87,15.85 14.91,15.75 14.98,15.67 15.05,15.59 15.15,15.54 15.24,15.48 15.34,15.46 15.45,15.44 15.55,15.46 15.66,15.47 15.75,15.52 15.85,15.56 15.92,15.64 16.00,15.71 16.05,15.81 16.09,15.90 16.11,16.01 16.12,16.11 16.11,16.22 16.09,16.32 16.03,16.41 15.98,16.51 15.90,16.58 15.83,16.65 15.73,16.69 15.63,16.73 15.52,16.74 15.42,16.75 15.32,16.73 15.21,16.70 15.12,16.65 15.03,16.59 14.97,16.51 14.90,16.42 14.86,16.33 14.82,16.23 14.82,16.12 14.82,16.01 14.85,15.91 14.88,15.81 14.94,15.72 15.00,15.64 15.09,15.57 15.17,15.51 15.27,15.48 15.38,15.45 15.48,15.45 15.59,15.45 15.69,15.49 15.79,15.52 15.80,15.53 15.82,15.54 15.88,15.59 15.94,15.64 15.99,15.71 16.04,15.77 16.07,15.84 16.10,15.92 16.11,15.99 16.12,16.07 16.12,16.15 16.11,16.23 16.09,16.30 16.06,16.38 16.02,16.45 15.98,16.51 15.92,16.57 15.86,16.62 15.79,16.66 15.73,16.70 15.65,16.72 15.57,16.75 15.50,16.75 15.42,16.75 15.34,16.74 15.26,16.72 15.19,16.69 15.12,16.65 15.86,17.26 16.60,17.87 15.71,17.30 14.82,16.74 13.44,15.88 12.06,15.02 10.13,13.68 8.21,12.34 6.20,10.54 4.19,8.73 2.52,6.61 0.84,4.48 0.11,2.41 -0.62,0.33 -0.65,0.25 -0.68,0.17 -0.69,0.08 -0.70,0.00 -0.69,-0.08 -0.68,-0.16 -0.65,-0.24 -0.62,-0.32 -0.57,-0.39 -0.53,-0.46 -0.46,-0.52 -0.40,-0.58 -0.32,-0.62 -0.25,-0.66 -0.16,-0.68 -0.08,-0.70 -0.00,-0.70 0.08,-0.70 0.16,-0.68 0.24,-0.66 0.32,-0.62 0.40,-0.58 0.46,-0.52 0.52,-0.47 0.57,-0.40 0.62,-0.33 0.62,-0.33 L 0.62,-0.33 Z"></path></g><g transform="translate(150.48706157821266 252.07277178845084) rotate(0 9.551379528093719 9.07681506827268)" stroke="none"><path fill="#e03131" d="M 0.67,0 Q 0.67,0 1.01,0.58 1.36,1.16 1.45,2.10 1.55,3.04 1.79,4.35 2.03,5.65 2.35,6.74 2.68,7.84 3.20,9.08 3.72,10.32 5.11,11.89 6.49,13.46 7.92,14.47 9.36,15.47 10.59,16.04 11.81,16.61 12.73,16.71 13.64,16.81 14.19,16.49 14.74,16.17 15.29,15.31 15.83,14.45 16.19,12.57 16.55,10.69 16.75,8.82 16.94,6.96 17.03,5.63 17.11,4.30 17.22,3.35 17.34,2.40 17.38,1.84 17.42,1.27 17.77,2.00 18.11,2.73 18.13,2.66 18.14,2.58 18.18,2.51 18.21,2.43 18.26,2.37 18.31,2.31 18.37,2.26 18.44,2.22 18.51,2.18 18.58,2.15 18.66,2.14 18.74,2.13 18.82,2.13 18.90,2.14 18.97,2.16 19.05,2.19 19.11,2.23 19.18,2.27 19.24,2.33 19.29,2.39 19.33,2.46 19.37,2.52 19.39,2.60 19.41,2.68 19.42,2.76 19.42,2.83 19.37,2.99 19.31,3.15 19.24,3.22 19.17,3.30 19.08,3.35 18.98,3.40 18.88,3.42 18.77,3.44 18.67,3.42 18.56,3.41 18.47,3.36 18.38,3.31 18.30,3.24 18.23,3.16 18.18,3.06 18.14,2.97 18.12,2.86 18.11,2.76 18.13,2.65 18.15,2.55 18.21,2.46 18.26,2.37 18.34,2.30 18.42,2.23 18.52,2.18 18.62,2.14 18.72,2.14 18.83,2.13 18.93,2.16 19.03,2.18 19.12,2.24 19.21,2.30 19.28,2.38 19.34,2.47 19.38,2.57 19.41,2.67 19.41,2.78 19.42,2.88 19.38,2.98 19.35,3.08 19.29,3.17 19.22,3.25 19.14,3.32 19.05,3.38 18.95,3.41 18.85,3.44 18.74,3.43 18.63,3.43 18.53,3.39 18.44,3.35 18.35,3.28 18.27,3.22 18.22,3.12 18.16,3.03 18.14,2.93 18.11,2.83 18.12,2.72 18.13,2.62 18.12,2.67 18.11,2.73 18.13,2.66 18.14,2.58 18.18,2.51 18.21,2.43 18.26,2.37 18.31,2.31 18.37,2.26 18.44,2.22 18.51,2.18 18.58,2.15 18.66,2.14 18.74,2.13 18.82,2.13 18.90,2.14 18.97,2.16 19.05,2.19 19.11,2.23 19.18,2.27 19.24,2.33 19.29,2.39 19.33,2.46 19.37,2.52 19.39,2.60 19.41,2.68 19.42,2.76 19.42,2.83 20.03,2.18 20.63,1.52 20.58,2.15 20.53,2.79 20.43,3.65 20.32,4.51 20.23,5.90 20.14,7.29 19.92,9.34 19.70,11.39 19.08,13.84 18.47,16.30 17.32,17.67 16.18,19.04 14.80,19.52 13.43,20.00 11.95,19.77 10.47,19.54 8.97,18.81 7.48,18.08 5.76,16.80 4.04,15.52 2.46,13.52 0.87,11.52 0.32,10.08 -0.23,8.65 -0.56,7.38 -0.89,6.11 -1.07,4.68 -1.26,3.25 -1.31,2.20 -1.36,1.16 -1.01,0.58 -0.67,0 -0.66,-0.08 -0.65,-0.16 -0.62,-0.23 -0.59,-0.31 -0.55,-0.38 -0.50,-0.44 -0.44,-0.50 -0.38,-0.55 -0.31,-0.59 -0.24,-0.63 -0.16,-0.65 -0.08,-0.67 0.00,-0.67 0.08,-0.67 0.16,-0.65 0.24,-0.63 0.31,-0.59 0.38,-0.55 0.44,-0.50 0.50,-0.44 0.55,-0.38 0.59,-0.31 0.62,-0.23 0.65,-0.16 0.66,-0.08 0.67,0.00 0.67,0.00 L 0.67,0 Z"></path></g><g transform="translate(186.09863775610177 252.3256199713001) rotate(0 -2.909480101655163 8.697521485370515)" stroke="none"><path fill="#e03131" d="M 0.04,0.80 Q 0.04,0.80 -0.57,0.98 -1.18,1.15 -1.69,1.98 -2.20,2.82 -1.72,3.69 -1.23,4.56 -0.13,5.54 0.96,6.52 2.17,7.82 3.38,9.12 4.20,11.60 5.03,14.08 3.96,15.78 2.89,17.49 0.43,18.31 -2.02,19.13 -4.15,19.20 -6.27,19.26 -8.33,18.57 -10.39,17.88 -10.48,17.82 -10.57,17.76 -10.63,17.68 -10.69,17.59 -10.73,17.49 -10.76,17.39 -10.76,17.28 -10.76,17.18 -10.73,17.08 -10.69,16.98 -10.63,16.89 -10.57,16.81 -10.48,16.75 -10.39,16.69 -10.29,16.66 -10.19,16.63 -10.08,16.64 -9.97,16.64 -9.88,16.68 -9.78,16.72 -9.70,16.79 -9.61,16.86 -9.56,16.95 -9.50,17.04 -9.48,17.14 -9.46,17.25 -9.47,17.35 -9.48,17.46 -9.53,17.55 -9.57,17.65 -9.64,17.73 -9.72,17.81 -9.81,17.86 -9.90,17.90 -10.01,17.92 -10.11,17.94 -10.22,17.92 -10.32,17.91 -10.42,17.86 -10.51,17.81 -10.58,17.73 -10.66,17.65 -10.70,17.56 -10.75,17.46 -10.76,17.35 -10.77,17.25 -10.75,17.14 -10.72,17.04 -10.67,16.95 -10.62,16.86 -10.53,16.79 -10.45,16.72 -10.35,16.68 -10.26,16.64 -10.15,16.64 -10.04,16.63 -9.94,16.66 -9.84,16.69 -9.84,16.69 -9.84,16.69 -8.17,16.82 -6.50,16.95 -4.70,16.60 -2.90,16.25 -1.16,15.78 0.57,15.30 1.33,14.55 2.10,13.79 1.50,12.54 0.90,11.28 -0.20,10.04 -1.31,8.81 -2.59,7.42 -3.86,6.03 -4.31,4.96 -4.76,3.90 -4.62,2.77 -4.49,1.64 -3.89,0.84 -3.30,0.03 -2.40,-0.48 -1.50,-1.01 -0.77,-0.90 -0.04,-0.80 0.05,-0.79 0.15,-0.79 0.24,-0.76 0.33,-0.73 0.41,-0.68 0.50,-0.63 0.56,-0.56 0.63,-0.49 0.68,-0.40 0.73,-0.32 0.76,-0.23 0.79,-0.13 0.79,-0.04 0.80,0.05 0.78,0.14 0.76,0.24 0.72,0.33 0.68,0.42 0.62,0.49 0.56,0.57 0.48,0.63 0.41,0.69 0.32,0.73 0.23,0.76 0.13,0.78 0.04,0.80 0.04,0.80 L 0.04,0.80 Z"></path></g><g transform="translate(199.69823047968737 253.40055503214745) rotate(0 1.0753186161558688 9.077134697696494)" stroke="none"><path fill="#e03131" d="M 0.79,-0.23 Q 0.79,-0.23 1.69,1.53 2.59,3.30 2.88,5.19 3.17,7.09 3.26,8.79 3.35,10.49 3.36,11.95 3.38,13.42 3.08,14.60 2.79,15.78 2.78,15.86 2.77,15.94 2.74,16.01 2.72,16.09 2.67,16.15 2.63,16.22 2.57,16.27 2.51,16.33 2.44,16.36 2.37,16.40 2.29,16.42 2.22,16.44 2.14,16.44 2.06,16.44 1.98,16.42 1.90,16.40 1.83,16.37 1.76,16.33 1.70,16.28 1.64,16.23 1.60,16.16 1.55,16.10 1.53,16.02 1.50,15.95 1.49,15.87 1.48,15.79 1.50,15.67 1.52,15.55 1.57,15.46 1.63,15.37 1.71,15.30 1.79,15.23 1.89,15.19 1.98,15.15 2.09,15.14 2.20,15.13 2.30,15.16 2.40,15.19 2.49,15.25 2.58,15.31 2.64,15.39 2.71,15.47 2.74,15.57 2.78,15.67 2.78,15.78 2.78,15.89 2.75,15.99 2.72,16.09 2.65,16.17 2.59,16.26 2.50,16.32 2.42,16.38 2.31,16.41 2.21,16.44 2.11,16.43 2.00,16.43 1.90,16.39 1.80,16.35 1.72,16.29 1.64,16.22 1.58,16.13 1.53,16.04 1.50,15.93 1.48,15.83 1.49,15.72 1.50,15.62 1.54,15.52 1.59,15.43 1.66,15.35 1.73,15.27 1.82,15.22 1.92,15.17 2.02,15.15 2.13,15.13 2.23,15.15 2.34,15.16 2.43,15.21 2.52,15.26 2.60,15.34 2.67,15.41 2.72,15.51 2.76,15.60 2.78,15.71 2.79,15.82 2.79,15.80 2.79,15.78 2.78,15.86 2.77,15.94 2.74,16.01 2.72,16.09 2.67,16.15 2.63,16.22 2.57,16.27 2.51,16.33 2.44,16.36 2.37,16.40 2.29,16.42 2.22,16.44 2.14,16.44 2.06,16.44 1.98,16.42 1.90,16.40 1.83,16.37 1.76,16.33 1.70,16.28 1.64,16.23 1.60,16.16 1.55,16.10 1.53,16.02 1.50,15.95 1.49,15.87 1.48,15.79 0.80,14.62 0.13,13.44 0.12,12.03 0.12,10.62 0.07,9.06 0.03,7.51 -0.15,5.84 -0.34,4.18 -0.56,2.21 -0.79,0.23 -0.80,0.14 -0.82,0.04 -0.81,-0.05 -0.81,-0.15 -0.78,-0.25 -0.75,-0.34 -0.69,-0.43 -0.64,-0.51 -0.57,-0.58 -0.50,-0.65 -0.41,-0.70 -0.33,-0.75 -0.23,-0.78 -0.14,-0.81 -0.04,-0.81 0.05,-0.82 0.15,-0.80 0.25,-0.78 0.34,-0.74 0.43,-0.70 0.51,-0.64 0.59,-0.57 0.65,-0.49 0.71,-0.42 0.75,-0.32 0.79,-0.23 0.79,-0.23 L 0.79,-0.23 Z"></path></g><g transform="translate(196.7884946744931 244.8612501115549) rotate(0 1.0752759988993716 -0.09467423532777275)" stroke="none"><path fill="#e03131" d="M 1.76,-0.65 Q 1.76,-0.65 1.86,-0.63 1.97,-0.62 2.06,-0.57 2.15,-0.52 2.23,-0.44 2.30,-0.36 2.35,-0.27 2.39,-0.17 2.40,-0.07 2.41,0.03 2.39,0.13 2.37,0.24 2.31,0.33 2.26,0.42 2.18,0.49 2.10,0.56 2.00,0.60 1.90,0.64 1.79,0.64 1.69,0.65 1.58,0.62 1.48,0.59 1.39,0.53 1.31,0.47 1.24,0.39 1.18,0.30 1.14,0.20 1.11,0.10 1.11,-0.00 1.11,-0.10 1.14,-0.20 1.18,-0.30 1.24,-0.39 1.31,-0.47 1.39,-0.53 1.48,-0.59 1.58,-0.62 1.69,-0.65 1.79,-0.64 1.90,-0.64 2.00,-0.60 2.10,-0.56 2.18,-0.49 2.26,-0.42 2.31,-0.33 2.37,-0.24 2.39,-0.13 2.41,-0.03 2.40,0.07 2.39,0.17 2.35,0.27 2.30,0.36 2.23,0.44 2.15,0.52 2.06,0.57 1.97,0.62 1.86,0.63 1.76,0.65 1.76,0.65 1.76,0.65 1.65,0.85 1.55,1.05 1.40,1.22 1.25,1.40 1.06,1.53 0.88,1.66 0.67,1.74 0.46,1.82 0.23,1.85 0.01,1.88 -0.21,1.85 -0.43,1.82 -0.65,1.74 -0.86,1.67 -1.05,1.54 -1.23,1.41 -1.39,1.24 -1.54,1.07 -1.64,0.87 -1.75,0.67 -1.80,0.45 -1.86,0.23 -1.86,0.01 -1.86,-0.21 -1.81,-0.43 -1.76,-0.65 0.00,-0.65 L 1.76,-0.65 Z"></path></g><g transform="translate(208.11121785199646 252.3256199713001) rotate(0 8.855397112096512 8.191164552196142)" stroke="none"><path fill="#e03131" d="M 0.72,-0.36 Q 0.72,-0.36 2.06,1.54 3.40,3.44 3.96,5.32 4.51,7.19 4.75,8.72 4.99,10.24 5.09,11.58 5.20,12.92 5.28,13.84 5.36,14.75 5.47,15.18 5.58,15.61 5.57,15.81 5.56,16.01 5.51,16.20 5.45,16.38 5.36,16.55 5.26,16.73 5.12,16.87 4.98,17.01 4.82,17.11 4.65,17.22 4.46,17.28 4.28,17.34 4.08,17.36 3.88,17.37 3.69,17.34 3.50,17.31 3.31,17.23 3.13,17.15 2.98,17.04 2.82,16.92 2.70,16.76 2.57,16.61 2.49,16.43 2.40,16.26 2.36,16.06 2.33,15.87 2.73,14.99 3.13,14.10 3.66,11.48 4.19,8.85 4.78,7.03 5.38,5.20 6.16,4.04 6.94,2.87 8.06,2.22 9.18,1.57 10.35,1.64 11.51,1.71 12.66,2.59 13.81,3.48 14.60,4.60 15.38,5.72 16.06,7.12 16.73,8.51 17.28,9.78 17.82,11.04 18.21,12.15 18.60,13.25 18.26,12.94 17.91,12.63 17.93,12.71 17.95,12.79 17.95,12.87 17.94,12.95 17.92,13.02 17.90,13.10 17.86,13.17 17.83,13.24 17.77,13.30 17.72,13.35 17.65,13.40 17.59,13.44 17.51,13.47 17.44,13.49 17.36,13.50 17.28,13.51 17.20,13.50 17.12,13.49 17.05,13.46 16.98,13.43 16.91,13.38 16.85,13.33 16.80,13.27 16.74,13.21 16.71,13.14 16.67,13.07 16.66,12.89 16.65,12.72 16.69,12.62 16.73,12.52 16.80,12.44 16.87,12.36 16.96,12.30 17.05,12.24 17.15,12.22 17.25,12.20 17.36,12.21 17.47,12.22 17.56,12.26 17.66,12.31 17.74,12.38 17.81,12.45 17.86,12.55 17.92,12.64 17.93,12.74 17.95,12.85 17.93,12.95 17.92,13.06 17.87,13.15 17.82,13.25 17.74,13.32 17.67,13.39 17.57,13.44 17.47,13.48 17.37,13.50 17.26,13.51 17.16,13.49 17.06,13.46 16.96,13.41 16.87,13.36 16.80,13.28 16.73,13.20 16.69,13.10 16.65,13.00 16.65,12.89 16.64,12.79 16.67,12.68 16.70,12.58 16.76,12.49 16.81,12.40 16.90,12.34 16.98,12.27 17.08,12.24 17.18,12.21 17.29,12.20 17.40,12.20 17.50,12.24 17.60,12.27 17.68,12.33 17.77,12.40 17.83,12.49 17.89,12.57 17.92,12.68 17.95,12.78 17.93,12.71 17.91,12.63 17.93,12.71 17.95,12.79 17.95,12.87 17.94,12.95 17.92,13.02 17.90,13.10 17.86,13.17 17.83,13.24 17.77,13.30 17.72,13.35 17.65,13.40 17.59,13.44 17.51,13.47 17.44,13.49 17.36,13.50 17.28,13.51 17.20,13.50 17.12,13.49 17.05,13.46 16.98,13.43 16.91,13.38 16.85,13.33 16.80,13.27 16.75,13.21 16.71,13.14 16.67,13.07 16.07,13.72 15.46,14.36 15.11,13.36 14.75,12.36 14.24,11.15 13.72,9.93 13.18,8.75 12.64,7.57 12.10,6.74 11.57,5.90 11.15,5.36 10.73,4.81 10.12,4.82 9.50,4.84 8.99,5.55 8.49,6.26 7.94,7.92 7.39,9.58 6.49,12.60 5.58,15.61 5.57,15.81 5.56,16.01 5.51,16.20 5.45,16.38 5.36,16.55 5.26,16.72 5.12,16.87 4.98,17.01 4.82,17.11 4.65,17.22 4.46,17.28 4.28,17.34 4.08,17.36 3.88,17.37 3.69,17.34 3.50,17.31 3.31,17.23 3.13,17.15 2.98,17.04 2.82,16.92 2.70,16.76 2.57,16.61 2.49,16.43 2.40,16.26 2.36,16.06 2.33,15.87 2.23,15.44 2.13,15.01 2.06,14.07 2.00,13.14 1.93,11.91 1.87,10.68 1.70,9.34 1.53,8.00 1.13,6.39 0.74,4.77 0.01,2.56 -0.72,0.36 -0.75,0.27 -0.78,0.18 -0.79,0.08 -0.80,-0.01 -0.79,-0.10 -0.78,-0.20 -0.74,-0.29 -0.70,-0.38 -0.65,-0.46 -0.59,-0.54 -0.52,-0.60 -0.44,-0.67 -0.36,-0.71 -0.27,-0.75 -0.17,-0.78 -0.08,-0.80 0.01,-0.80 0.11,-0.79 0.20,-0.77 0.29,-0.75 0.38,-0.70 0.46,-0.65 0.54,-0.59 0.61,-0.52 0.66,-0.44 0.72,-0.36 0.72,-0.36 L 0.72,-0.36 Z"></path></g><g transform="translate(248.3408851793738 250.23797104410397) rotate(0 -1.5498617673486592 8.381450602494795)" stroke="none"><path d="M-13.07 3.21 C-13.07 3.21, -13.07 3.21, -13.07 3.21 M-13.07 3.21 C-13.07 3.21, -13.07 3.21, -13.07 3.21 M-13.53 6.79 C-10.75 3.59, -7.97 0.39, -5.66 -2.27 M-13.53 6.79 C-10.63 3.45, -7.73 0.12, -5.66 -2.27 M-4.35 -3.78 C-4.35 -3.78, -4.35 -3.78, -4.35 -3.78 M-4.35 -3.78 C-4.35 -3.78, -4.35 -3.78, -4.35 -3.78 M-13.33 9.61 C-10.91 6.82, -8.48 4.03, -2.84 -2.47 M-13.33 9.61 C-10.63 6.49, -7.92 3.38, -2.84 -2.47 M-2.18 -3.22 C-1.31 -4.22, -0.44 -5.23, 0.44 -6.24 M-2.18 -3.22 C-1.15 -4.41, -0.11 -5.6, 0.44 -6.24 M-13.14 12.43 C-8.75 7.38, -4.36 2.34, -1.33 -1.15 M-13.14 12.43 C-8.73 7.36, -4.33 2.3, -1.33 -1.15 M1.3 -4.17 C1.73 -4.67, 2.16 -5.16, 2.61 -5.68 M1.3 -4.17 C1.67 -4.61, 2.05 -5.04, 2.61 -5.68 M-12.28 14.5 C-7.09 8.52, -1.89 2.54, 4.12 -4.37 M-12.28 14.5 C-6.5 7.85, -0.72 1.2, 4.12 -4.37 M-11.43 16.56 C-7.41 11.94, -3.38 7.31, 5.63 -3.06 M-11.43 16.56 C-5.48 9.72, 0.47 2.88, 5.63 -3.06 M-9.92 17.88 C-6.4 13.82, -2.87 9.77, 7.14 -1.75 M-9.92 17.88 C-4.99 12.2, -0.06 6.53, 7.14 -1.75 M-8.41 19.19 C-4.67 14.88, -0.93 10.58, 8.65 -0.43 M-8.41 19.19 C-3.81 13.89, 0.8 8.59, 8.65 -0.43 M-6.9 20.5 C-0.72 13.39, 5.47 6.27, 9.5 1.63 M-6.9 20.5 C-1.51 14.3, 3.88 8.1, 9.5 1.63 M-4.74 21.06 C0.37 15.19, 5.47 9.32, 10.35 3.7 M-4.74 21.06 C-0.22 15.86, 4.3 10.66, 10.35 3.7 M-2.57 21.62 C2.17 16.16, 6.91 10.71, 10.55 6.52 M-2.57 21.62 C0.97 17.54, 4.52 13.46, 10.55 6.52 M-0.41 22.17 C3.25 17.96, 6.91 13.76, 10.09 10.1 M-0.41 22.17 C2.09 19.3, 4.58 16.43, 10.09 10.1 M1.76 22.73 C4.23 19.89, 6.7 17.05, 10.29 12.92 M1.76 22.73 C4.87 19.15, 7.99 15.56, 10.29 12.92 M3.93 23.29 C5.52 21.45, 7.12 19.61, 9.17 17.25 M3.93 23.29 C5.17 21.85, 6.42 20.41, 9.17 17.25" stroke="#ffec99" stroke-width="0.25" fill="none"></path><path fill="#e03131" d="M -0.41,-0.50 Q -0.41,-0.50 0.04,-1.20 0.50,-1.90 0.76,-2.51 1.02,-3.12 0.34,-3.30 -0.33,-3.47 -1.57,-3.09 -2.81,-2.72 -3.65,-2.40 -4.48,-2.08 -5.54,-1.39 -6.59,-0.69 -7.32,-0.14 -8.04,0.40 -8.73,0.97 -9.41,1.54 -9.98,2.05 -10.54,2.56 -10.90,2.98 -11.25,3.40 -11.59,4.49 -11.94,5.58 -11.99,6.20 -12.05,6.81 -12.07,7.51 -12.10,8.20 -12.11,9.00 -12.11,9.81 -12.01,10.70 -11.90,11.58 -11.59,12.50 -11.28,13.42 -10.79,14.27 -10.30,15.13 -9.69,15.89 -9.07,16.66 -8.33,17.39 -7.59,18.12 -6.70,18.68 -5.80,19.24 -4.67,19.71 -3.53,20.18 -2.32,20.51 -1.10,20.85 0.10,21.02 1.30,21.19 2.28,21.04 3.26,20.89 4.08,20.41 4.90,19.93 5.68,19.00 6.47,18.06 7.12,16.39 7.77,14.71 8.10,12.93 8.43,11.15 8.45,9.55 8.47,7.94 8.20,6.47 7.94,5.01 7.43,3.59 6.91,2.16 6.10,0.80 5.28,-0.55 4.44,-1.61 3.60,-2.66 2.87,-3.30 2.15,-3.94 1.57,-4.17 0.99,-4.41 0.45,-4.49 -0.08,-4.57 -0.63,-4.56 -1.19,-4.54 -2.85,-4.21 -4.51,-3.87 -4.61,-3.86 -4.72,-3.84 -4.82,-3.86 -4.93,-3.87 -5.02,-3.92 -5.12,-3.97 -5.19,-4.05 -5.26,-4.13 -5.31,-4.22 -5.35,-4.32 -5.36,-4.42 -5.38,-4.53 -5.35,-4.63 -5.33,-4.74 -5.28,-4.83 -5.22,-4.92 -5.14,-4.99 -5.06,-5.06 -4.96,-5.10 -4.86,-5.14 -4.76,-5.14 -4.65,-5.15 -4.55,-5.12 -4.44,-5.09 -4.36,-5.03 -4.27,-4.97 -4.20,-4.89 -4.14,-4.80 -4.11,-4.70 -4.07,-4.60 -4.07,-4.50 -4.07,-4.39 -4.11,-4.29 -4.14,-4.19 -4.20,-4.10 -4.27,-4.02 -4.35,-3.96 -4.44,-3.90 -4.54,-3.87 -4.65,-3.84 -4.75,-3.85 -4.86,-3.85 -4.96,-3.89 -5.06,-3.93 -5.14,-4.00 -5.22,-4.07 -5.27,-4.16 -5.33,-4.25 -5.35,-4.35 -5.38,-4.46 -5.36,-4.56 -5.35,-4.67 -5.31,-4.77 -5.26,-4.86 -5.19,-4.94 -5.12,-5.02 -5.02,-5.07 -4.93,-5.12 -4.93,-5.12 -4.93,-5.12 -3.33,-5.99 -1.73,-6.86 -0.75,-7.19 0.21,-7.53 1.22,-7.43 2.23,-7.32 3.24,-6.85 4.25,-6.38 5.20,-5.54 6.15,-4.69 7.12,-3.45 8.09,-2.22 9.06,-0.58 10.02,1.05 10.62,2.74 11.21,4.44 11.50,6.21 11.80,7.99 11.75,9.88 11.71,11.78 11.29,13.88 10.87,15.98 9.94,18.13 9.00,20.27 7.76,21.57 6.52,22.87 5.14,23.54 3.76,24.21 2.30,24.36 0.85,24.52 -0.58,24.30 -2.02,24.08 -3.44,23.67 -4.85,23.25 -6.23,22.64 -7.61,22.03 -8.78,21.25 -9.94,20.46 -10.81,19.57 -11.67,18.68 -12.42,17.69 -13.18,16.69 -13.77,15.54 -14.37,14.39 -14.72,13.16 -15.08,11.92 -15.18,10.84 -15.28,9.75 -15.26,8.89 -15.23,8.04 -15.18,7.23 -15.13,6.43 -15.00,5.57 -14.87,4.70 -14.61,3.90 -14.35,3.10 -13.93,2.28 -13.52,1.46 -13.00,0.89 -12.49,0.33 -11.86,-0.19 -11.24,-0.71 -10.50,-1.29 -9.75,-1.88 -8.91,-2.49 -8.07,-3.11 -6.74,-3.88 -5.40,-4.65 -4.45,-4.96 -3.51,-5.26 -2.66,-5.47 -1.80,-5.67 -1.02,-5.81 -0.24,-5.94 0.42,-5.88 1.09,-5.82 1.72,-5.52 2.34,-5.21 2.74,-4.63 3.15,-4.06 3.25,-3.34 3.35,-2.62 3.10,-1.90 2.85,-1.19 2.41,-0.66 1.97,-0.13 1.19,0.18 0.41,0.50 0.35,0.54 0.28,0.59 0.20,0.61 0.13,0.64 0.05,0.64 -0.02,0.65 -0.10,0.64 -0.18,0.63 -0.25,0.60 -0.32,0.57 -0.38,0.52 -0.45,0.47 -0.50,0.41 -0.55,0.35 -0.58,0.28 -0.62,0.21 -0.63,0.13 -0.65,0.05 -0.65,-0.02 -0.64,-0.10 -0.62,-0.17 -0.60,-0.25 -0.56,-0.32 -0.52,-0.39 -0.47,-0.44 -0.41,-0.50 -0.41,-0.50 L -0.41,-0.50 Z"></path></g><g transform="translate(239.9908861121803 250.4279161563506) rotate(0 12.39795655914628 8.412902137796152)" stroke="none"><path fill="#e03131" d="M 0.28,-0.59 Q 0.28,-0.59 1.77,-0.30 3.27,-0.00 4.73,0.94 6.18,1.89 7.70,2.93 9.22,3.96 10.87,5.06 12.52,6.17 13.98,7.15 15.43,8.13 17.14,9.29 18.85,10.45 20.07,11.27 21.28,12.09 22.08,12.67 22.88,13.25 23.48,13.73 24.08,14.21 24.89,15.04 25.70,15.86 25.54,15.65 25.38,15.43 25.50,15.56 25.62,15.70 25.70,15.85 25.78,16.01 25.83,16.18 25.87,16.35 25.87,16.53 25.87,16.70 25.83,16.88 25.79,17.05 25.71,17.20 25.63,17.36 25.51,17.49 25.39,17.63 25.25,17.73 25.10,17.83 24.94,17.89 24.77,17.96 24.60,17.98 24.42,18.00 24.25,17.98 24.07,17.96 23.91,17.90 23.74,17.84 23.59,17.74 23.45,17.64 22.44,16.31 21.43,14.98 21.36,14.90 21.30,14.81 21.26,14.71 21.22,14.61 21.22,14.51 21.22,14.40 21.25,14.30 21.28,14.20 21.35,14.11 21.41,14.02 21.49,13.96 21.58,13.90 21.68,13.87 21.78,13.84 21.89,13.84 22.00,13.85 22.10,13.88 22.20,13.92 22.28,13.99 22.36,14.05 22.42,14.14 22.47,14.23 22.50,14.34 22.53,14.44 22.52,14.55 22.51,14.65 22.46,14.75 22.42,14.85 22.35,14.93 22.28,15.00 22.19,15.06 22.09,15.11 21.99,15.13 21.89,15.15 21.78,15.13 21.68,15.12 21.58,15.07 21.49,15.02 21.41,14.95 21.34,14.87 21.29,14.78 21.24,14.68 21.23,14.58 21.21,14.47 21.23,14.37 21.25,14.26 21.31,14.17 21.36,14.08 21.44,14.01 21.52,13.94 21.62,13.89 21.71,13.85 21.82,13.84 21.93,13.84 22.03,13.86 22.13,13.89 22.22,13.95 22.31,14.00 22.31,14.00 22.31,14.00 23.84,14.72 25.38,15.43 25.50,15.56 25.62,15.70 25.70,15.85 25.78,16.01 25.83,16.18 25.87,16.35 25.87,16.53 25.87,16.70 25.83,16.88 25.79,17.05 25.71,17.20 25.63,17.36 25.51,17.49 25.39,17.63 25.25,17.73 25.10,17.83 24.94,17.89 24.77,17.96 24.60,17.98 24.42,18.00 24.25,17.98 24.07,17.96 23.91,17.90 23.74,17.84 23.60,17.74 23.45,17.64 23.21,17.50 22.98,17.35 22.52,17.02 22.07,16.68 21.53,16.24 21.00,15.80 20.26,15.25 19.52,14.70 18.30,13.87 17.08,13.05 15.38,11.88 13.67,10.71 12.23,9.72 10.79,8.74 9.13,7.60 7.47,6.46 5.99,5.40 4.50,4.34 3.27,3.45 2.03,2.55 0.87,1.57 -0.28,0.59 -0.35,0.55 -0.42,0.51 -0.47,0.45 -0.53,0.39 -0.57,0.32 -0.61,0.25 -0.63,0.18 -0.65,0.10 -0.65,0.02 -0.66,-0.05 -0.64,-0.13 -0.62,-0.21 -0.59,-0.28 -0.55,-0.35 -0.50,-0.41 -0.45,-0.48 -0.39,-0.52 -0.32,-0.57 -0.25,-0.60 -0.18,-0.63 -0.10,-0.65 -0.02,-0.66 0.05,-0.65 0.13,-0.64 0.21,-0.62 0.28,-0.59 0.28,-0.59 L 0.28,-0.59 Z"></path></g><g transform="translate(197.35777598689845 474.915635935929) rotate(0 17.458244362139226 0.2531891209012542)" stroke="none"><path fill="#f08c00" d="M -0.04,-0.65 Q -0.04,-0.65 0.90,-1.09 1.86,-1.53 3.16,-1.58 4.47,-1.63 8.01,-1.67 11.54,-1.71 14.50,-1.72 17.45,-1.74 19.86,-1.71 22.28,-1.68 24.37,-1.56 26.46,-1.44 27.88,-1.31 29.31,-1.19 30.22,-1.10 31.13,-1.01 31.75,-0.96 32.36,-0.90 33.25,-0.85 34.15,-0.79 33.71,-0.77 33.28,-0.74 33.36,-0.73 33.43,-0.72 33.51,-0.69 33.58,-0.66 33.64,-0.61 33.71,-0.57 33.76,-0.50 33.81,-0.44 33.85,-0.37 33.88,-0.30 33.90,-0.23 33.92,-0.15 33.91,-0.07 33.91,0.00 33.89,0.08 33.87,0.15 33.83,0.22 33.79,0.29 33.74,0.35 33.69,0.41 33.62,0.45 33.55,0.49 33.48,0.52 33.40,0.55 33.33,0.55 33.25,0.56 33.06,0.50 32.88,0.44 32.80,0.36 32.73,0.29 32.68,0.19 32.63,0.10 32.62,-0.00 32.61,-0.10 32.63,-0.21 32.65,-0.31 32.70,-0.40 32.75,-0.50 32.83,-0.57 32.91,-0.64 33.01,-0.68 33.10,-0.72 33.21,-0.73 33.32,-0.74 33.42,-0.71 33.52,-0.69 33.61,-0.63 33.70,-0.57 33.77,-0.49 33.83,-0.41 33.87,-0.31 33.91,-0.21 33.91,-0.10 33.91,0.00 33.88,0.10 33.85,0.20 33.79,0.29 33.73,0.37 33.64,0.43 33.55,0.49 33.45,0.53 33.35,0.56 33.24,0.55 33.14,0.55 33.04,0.51 32.94,0.48 32.85,0.41 32.77,0.34 32.72,0.25 32.66,0.16 32.63,0.06 32.61,-0.03 32.62,-0.14 32.62,-0.24 32.67,-0.34 32.71,-0.44 32.78,-0.52 32.85,-0.60 32.94,-0.65 33.04,-0.70 33.14,-0.72 33.25,-0.74 33.35,-0.73 33.46,-0.71 33.37,-0.73 33.28,-0.74 33.36,-0.73 33.43,-0.72 33.51,-0.69 33.58,-0.66 33.64,-0.61 33.71,-0.57 33.76,-0.50 33.81,-0.44 33.85,-0.37 33.88,-0.30 33.90,-0.23 33.92,-0.15 33.91,-0.07 33.91,0.00 33.89,0.08 33.87,0.15 33.83,0.22 33.79,0.29 33.74,0.35 33.69,0.41 33.62,0.45 33.55,0.49 33.48,0.52 33.40,0.55 33.33,0.55 33.25,0.56 33.63,1.41 34.02,2.26 33.05,2.19 32.08,2.13 31.46,2.07 30.83,2.01 29.93,1.92 29.04,1.83 27.66,1.70 26.28,1.58 24.26,1.45 22.23,1.32 19.84,1.29 17.46,1.25 14.51,1.24 11.55,1.24 8.05,1.23 4.54,1.22 3.30,1.23 2.06,1.24 1.05,0.95 0.04,0.65 -0.03,0.65 -0.10,0.64 -0.18,0.62 -0.26,0.60 -0.32,0.56 -0.39,0.52 -0.45,0.46 -0.51,0.41 -0.55,0.34 -0.59,0.27 -0.62,0.20 -0.64,0.12 -0.65,0.04 -0.65,-0.03 -0.64,-0.10 -0.62,-0.18 -0.59,-0.25 -0.56,-0.33 -0.51,-0.39 -0.47,-0.45 -0.40,-0.50 -0.34,-0.55 -0.27,-0.59 -0.20,-0.62 -0.12,-0.64 -0.04,-0.65 -0.04,-0.65 L -0.04,-0.65 Z"></path></g><g transform="translate(225.25273076378414 470.67807426978163) rotate(0 2.4987349834516976 3.5101277148488066)" stroke="none"><path fill="#f08c00" d="M -0.52,0.39 Q -0.52,0.39 -1.05,-0.05 -1.59,-0.50 -2.04,-1.05 -2.50,-1.60 -2.50,-1.54 -2.49,-1.48 -2.58,-1.59 -2.66,-1.70 -2.72,-1.83 -2.77,-1.97 -2.79,-2.11 -2.82,-2.25 -2.80,-2.39 -2.79,-2.53 -2.75,-2.66 -2.70,-2.80 -2.62,-2.92 -2.55,-3.04 -2.44,-3.13 -2.34,-3.23 -2.22,-3.30 -2.09,-3.37 -1.96,-3.41 -1.82,-3.45 -1.68,-3.45 -1.54,-3.46 -1.40,-3.43 -1.26,-3.40 -1.13,-3.34 -1.00,-3.28 -0.89,-3.19 -0.78,-3.09 0.24,-2.85 1.27,-2.60 1.99,-2.27 2.70,-1.94 3.46,-1.60 4.21,-1.27 4.97,-0.87 5.73,-0.48 6.46,-0.07 7.18,0.32 7.76,0.74 8.34,1.15 8.79,1.69 9.23,2.22 9.44,3.05 9.66,3.89 9.33,4.81 9.01,5.73 8.20,6.49 7.40,7.26 6.23,7.89 5.06,8.53 3.73,9.01 2.39,9.49 -0.32,9.63 -3.04,9.77 -3.14,9.75 -3.25,9.72 -3.34,9.66 -3.43,9.61 -3.49,9.52 -3.56,9.44 -3.60,9.34 -3.63,9.24 -3.64,9.14 -3.64,9.03 -3.61,8.93 -3.58,8.83 -3.52,8.74 -3.45,8.65 -3.37,8.59 -3.28,8.53 -3.18,8.50 -3.08,8.47 -2.97,8.47 -2.87,8.47 -2.77,8.51 -2.67,8.54 -2.58,8.61 -2.50,8.68 -2.44,8.77 -2.39,8.86 -2.36,8.96 -2.33,9.06 -2.34,9.17 -2.35,9.27 -2.39,9.37 -2.43,9.47 -2.51,9.55 -2.58,9.63 -2.67,9.68 -2.76,9.73 -2.86,9.75 -2.97,9.77 -3.07,9.76 -3.18,9.75 -3.28,9.70 -3.37,9.65 -3.45,9.58 -3.52,9.50 -3.57,9.41 -3.62,9.31 -3.63,9.21 -3.65,9.10 -3.63,9.00 -3.61,8.89 -3.55,8.80 -3.50,8.71 -3.42,8.64 -3.34,8.56 -3.25,8.52 -3.15,8.48 -3.04,8.47 -2.94,8.46 -2.94,8.46 -2.94,8.46 -0.77,7.64 1.39,6.82 2.54,6.37 3.69,5.92 4.59,5.47 5.49,5.02 6.18,4.44 6.87,3.87 6.32,3.33 5.78,2.79 5.09,2.39 4.40,1.99 3.71,1.60 3.03,1.22 2.27,0.84 1.52,0.47 0.90,0.14 0.28,-0.17 -0.29,-0.44 -0.86,-0.70 -1.68,-1.09 -2.49,-1.48 -2.58,-1.59 -2.66,-1.70 -2.72,-1.83 -2.77,-1.97 -2.79,-2.11 -2.82,-2.25 -2.80,-2.39 -2.79,-2.53 -2.75,-2.66 -2.70,-2.80 -2.62,-2.92 -2.55,-3.04 -2.44,-3.13 -2.34,-3.23 -2.22,-3.30 -2.09,-3.37 -1.96,-3.41 -1.82,-3.45 -1.68,-3.45 -1.54,-3.46 -1.40,-3.43 -1.26,-3.40 -1.13,-3.34 -1.00,-3.28 -0.89,-3.19 -0.78,-3.09 -0.78,-2.88 -0.78,-2.67 -0.43,-2.17 -0.07,-1.67 0.22,-1.03 0.52,-0.39 0.56,-0.33 0.60,-0.26 0.62,-0.18 0.64,-0.11 0.65,-0.03 0.65,0.04 0.64,0.12 0.62,0.20 0.59,0.27 0.55,0.34 0.50,0.40 0.45,0.46 0.39,0.51 0.33,0.56 0.26,0.59 0.18,0.62 0.11,0.64 0.03,0.65 -0.04,0.65 -0.12,0.64 -0.20,0.62 -0.27,0.59 -0.34,0.55 -0.41,0.51 -0.46,0.45 -0.52,0.39 -0.52,0.39 L -0.52,0.39 Z"></path></g></svg>